<svg xmlns="http://www.w3.org/2000/svg" xmlns:xlink="http://www.w3.org/1999/xlink" width="500" zoomAndPan="magnify" viewBox="0 0 375 374.999991" height="500" preserveAspectRatio="xMidYMid meet" version="1.0"><defs><clipPath id="262c307850"><path d="M 0 0.285156 L 374.714844 0.285156 L 374.714844 375 L 0 375 Z M 0 0.285156 " clip-rule="nonzero"/></clipPath><clipPath id="fb42d93af2"><path d="M 187.359375 0.285156 C 83.882812 0.285156 0 84.167969 0 187.640625 C 0 291.117188 83.882812 375 187.359375 375 C 290.832031 375 374.714844 291.117188 374.714844 187.640625 C 374.714844 84.167969 290.832031 0.285156 187.359375 0.285156 Z M 187.359375 0.285156 " clip-rule="nonzero"/></clipPath><clipPath id="5bc6f1aab6"><path d="M 157 17 L 365 17 L 365 223 L 157 223 Z M 157 17 " clip-rule="nonzero"/></clipPath><clipPath id="ab09a6d304"><path d="M 182.78125 -18.410156 L 390.105469 125.699219 L 312.753906 236.984375 L 105.429688 92.871094 Z M 182.78125 -18.410156 " clip-rule="nonzero"/></clipPath><clipPath id="2fc1532043"><path d="M 182.78125 -18.410156 L 390.105469 125.699219 L 312.753906 236.984375 L 105.429688 92.871094 Z M 182.78125 -18.410156 " clip-rule="nonzero"/></clipPath><clipPath id="a9b286e16b"><path d="M 182.777344 -18.40625 L 390.078125 125.6875 L 312.453125 237.363281 L 105.152344 93.269531 Z M 182.777344 -18.40625 " clip-rule="nonzero"/></clipPath></defs><g clip-path="url(#262c307850)"><g clip-path="url(#fb42d93af2)"><path fill="#0c2337" d="M 0 0.285156 L 374.714844 0.285156 L 374.714844 375 L 0 375 Z M 0 0.285156 " fill-opacity="1" fill-rule="nonzero"/></g></g><path fill="#ff3131" d="M 270.96875 169.203125 C 270.800781 168.921875 270.574219 168.695312 270.40625 168.414062 C 266.679688 163.671875 260.414062 161.074219 254.484375 161.75 C 247.9375 162.484375 243.082031 165.703125 240.484375 167.566406 C 240.484375 167.566406 224.507812 178.914062 198.367188 189.808594 C 193.90625 191.671875 193.171875 190.9375 193.003906 190.714844 C 192.835938 190.488281 192.777344 190.148438 192.949219 189.695312 C 196.164062 178.574219 199.667969 167.453125 201.753906 156.105469 C 204.296875 143.515625 205.875 130.757812 206.496094 117.941406 C 206.835938 111.449219 206.78125 104.5625 203.335938 99.085938 C 197.972656 90.503906 184.253906 88.925781 177.027344 96.039062 C 172.511719 100.496094 170.875 107.046875 169.519531 113.257812 C 167.769531 121.160156 166.132812 129.121094 164.664062 137.082031 C 163.929688 141.089844 163.363281 145.152344 162.855469 149.21875 C 162.179688 154.582031 161.898438 158.082031 160.542969 158.363281 C 160.035156 158.476562 159.132812 158.308594 157.664062 155.765625 C 156.140625 153.171875 154.671875 150.574219 153.089844 148.03125 C 150.210938 143.289062 147.21875 138.660156 144.058594 134.144531 C 137.789062 125.054688 130.902344 116.363281 123.449219 108.117188 C 119.046875 103.207031 114.191406 98.351562 108.039062 96.09375 C 103.070312 94.289062 97.085938 94.625 92.796875 97.84375 C 88.222656 101.175781 84.269531 104.054688 84.722656 110.433594 C 85.003906 114.386719 86.8125 118.113281 88.617188 121.667969 C 91.949219 128.046875 95.617188 134.3125 99.570312 140.355469 C 99.625 140.46875 102.109375 144.082031 106.964844 151.25 C 110.523438 156.445312 113.457031 160.792969 112.949219 161.1875 C 112.722656 161.355469 112.160156 160.507812 110.410156 159.664062 C 108.714844 158.871094 107.078125 158.082031 105.386719 157.40625 C 101.996094 156.050781 98.554688 154.808594 95.054688 153.679688 C 88.109375 151.363281 80.996094 149.5 73.828125 148.03125 C 69.421875 147.128906 65.019531 146.394531 60.617188 145.832031 C 55.308594 145.152344 49.71875 144.703125 44.75 146.679688 C 39.105469 148.9375 34.816406 154.355469 33.914062 160.398438 C 33.066406 166.4375 35.605469 172.816406 40.40625 176.597656 C 44.1875 179.535156 48.984375 180.832031 53.617188 182.074219 C 69.59375 186.480469 85.230469 191.957031 100.472656 198.5625 C 99.117188 197.996094 93.417969 200.933594 91.949219 201.441406 C 88.84375 202.570312 85.796875 203.753906 82.746094 204.996094 C 76.648438 207.480469 70.664062 210.246094 64.851562 213.238281 C 53.953125 218.828125 40.914062 225.265625 32.785156 234.691406 C 26.855469 241.636719 25.671875 251.796875 31.765625 259.082031 C 35.71875 263.765625 42.15625 266.25 48.195312 265.347656 C 53.503906 264.558594 58.1875 261.453125 62.761719 258.628906 C 74.390625 251.402344 86.753906 245.363281 99.625 240.621094 C 103.917969 239.039062 107.925781 235.820312 109.449219 237.234375 C 111.03125 238.699219 108.492188 243.78125 107.585938 245.703125 C 96.183594 269.414062 94.375 300.351562 94.09375 303.34375 C 93.191406 312.207031 93.078125 322.085938 98.835938 328.859375 C 106.175781 337.496094 122.097656 336.085938 127.796875 326.261719 C 130.226562 322.085938 130.847656 317.117188 131.523438 312.320312 C 133.667969 297.1875 135.644531 289.625 135.644531 289.625 C 138.808594 270.65625 139.597656 267.324219 141.121094 267.210938 C 142.644531 267.042969 143.378906 270.316406 148.742188 280.140625 C 150.097656 282.679688 152.976562 287.875 157.042969 294.140625 C 162.855469 303.171875 169.292969 311.699219 176.40625 319.769531 C 181.09375 325.078125 186.511719 330.441406 193.511719 331.738281 C 203.730469 333.546875 214.34375 323.949219 213.554688 313.617188 C 213.214844 309.550781 212.199219 306.617188 209.207031 301.421875 C 203.109375 290.867188 186.792969 269.300781 186.230469 266.703125 C 186.230469 266.703125 186.230469 266.644531 186.230469 266.589844 C 186.679688 265.574219 198.535156 270.878906 212.367188 275.171875 C 215.246094 276.074219 226.085938 278.898438 240.203125 281.15625 C 245.507812 282.003906 251.152344 282.625 256.234375 280.761719 C 266.226562 277.035156 270.292969 262.695312 263.628906 254.339844 C 260.1875 249.992188 256.007812 247.675781 248.726562 245.25 C 218.410156 235.257812 203.167969 233.902344 202.882812 230.175781 C 202.65625 227.351562 211.351562 226.222656 230.886719 217.132812 C 232.015625 216.625 244.097656 210.417969 258.664062 200.820312 C 264.644531 196.867188 270.855469 192.238281 273.285156 185.464844 C 275.089844 180.15625 274.242188 173.890625 270.96875 169.203125 Z M 270.96875 169.203125 " fill-opacity="1" fill-rule="nonzero"/><path fill="#ff3131" d="M 112.101562 335.972656 C 106.402344 335.972656 101.152344 333.714844 97.765625 329.761719 C 91.667969 322.539062 91.78125 312.261719 92.683594 303.171875 C 92.683594 303.003906 92.738281 302.722656 92.738281 302.269531 C 94.546875 279.800781 99.34375 259.476562 106.289062 245.023438 L 106.457031 244.683594 C 108.714844 239.886719 108.660156 238.585938 108.492188 238.191406 C 107.871094 238.078125 105.894531 239.097656 104.539062 239.828125 C 103.183594 240.507812 101.660156 241.296875 100.136719 241.863281 C 87.375 246.546875 75.070312 252.589844 63.550781 259.757812 L 62.535156 260.378906 C 58.1875 263.089844 53.671875 265.914062 48.421875 266.644531 C 41.929688 267.605469 34.984375 264.953125 30.695312 259.871094 C 24.484375 252.417969 24.878906 241.636719 31.710938 233.675781 C 39.671875 224.472656 51.921875 218.152344 62.761719 212.617188 L 64.171875 211.882812 C 70.101562 208.835938 76.140625 206.070312 82.183594 203.585938 C 85.457031 202.285156 88.449219 201.101562 91.441406 200.027344 C 91.78125 199.914062 92.457031 199.632812 93.191406 199.292969 C 94.207031 198.84375 95.167969 198.449219 95.957031 198.109375 C 82.183594 192.351562 67.84375 187.382812 53.21875 183.375 C 48.703125 182.132812 43.566406 180.777344 39.5 177.671875 C 34.308594 173.605469 31.542969 166.71875 32.5 160.171875 C 33.460938 153.621094 38.089844 147.808594 44.1875 145.324219 C 49.550781 143.179688 55.535156 143.742188 60.730469 144.363281 C 65.132812 144.929688 69.648438 145.660156 74.050781 146.566406 C 81.503906 148.089844 88.675781 150.007812 95.449219 152.265625 C 98.949219 153.394531 102.449219 154.636719 105.835938 156.050781 C 107.078125 156.558594 108.320312 157.121094 109.5625 157.6875 C 108.378906 155.824219 106.851562 153.621094 105.722656 151.984375 C 103.128906 148.144531 101.207031 145.324219 99.964844 143.515625 C 98.722656 141.652344 98.382812 141.203125 98.273438 141.03125 C 94.320312 134.992188 90.59375 128.667969 87.261719 122.234375 C 85.285156 118.335938 83.480469 114.554688 83.199219 110.433594 C 82.691406 103.265625 87.148438 100.046875 91.835938 96.601562 C 96.238281 93.328125 102.5625 92.539062 108.378906 94.683594 C 115.039062 97.109375 120.121094 102.359375 124.355469 107.101562 C 131.804688 115.402344 138.808594 124.207031 145.074219 133.296875 C 148.121094 137.644531 151.113281 142.21875 154.164062 147.242188 C 155.292969 149.050781 156.421875 150.96875 157.492188 152.832031 C 157.890625 153.566406 158.339844 154.300781 158.734375 155.035156 C 159.355469 156.105469 159.808594 156.613281 160.035156 156.785156 C 160.484375 155.824219 160.824219 153.058594 161.105469 150.574219 L 161.277344 148.992188 C 161.898438 144.023438 162.460938 140.242188 163.082031 136.796875 C 164.496094 129.234375 166.132812 121.214844 167.9375 112.917969 C 169.40625 106.144531 171.15625 99.652344 175.84375 95.019531 C 179.566406 91.351562 185.15625 89.601562 190.914062 90.277344 C 196.675781 90.957031 201.585938 93.890625 204.351562 98.351562 C 208.078125 104.335938 208.078125 111.621094 207.738281 118.054688 C 207.117188 130.925781 205.539062 143.855469 202.996094 156.445312 C 201.246094 166.042969 198.425781 175.582031 195.714844 184.785156 C 195.261719 186.421875 194.753906 188.003906 194.304688 189.640625 C 194.867188 189.527344 195.941406 189.300781 197.691406 188.566406 C 223.378906 177.839844 239.355469 166.605469 239.523438 166.492188 C 242.628906 164.234375 247.597656 161.1875 254.203125 160.453125 C 260.636719 159.71875 267.355469 162.542969 271.363281 167.625 L 271.476562 167.792969 C 271.535156 167.90625 271.589844 167.960938 271.648438 168.074219 C 271.761719 168.1875 271.871094 168.355469 271.984375 168.582031 C 275.484375 173.605469 276.445312 180.269531 274.46875 186.085938 C 271.871094 193.421875 265.265625 198.222656 259.285156 202.175781 C 244.546875 211.882812 232.523438 218.039062 231.28125 218.601562 C 222.871094 222.496094 216.546875 224.925781 211.917969 226.675781 C 208.132812 228.144531 204.578125 229.5 204.125 230.230469 C 204.578125 231.472656 211.632812 233.335938 218.523438 235.144531 C 225.972656 237.121094 236.136719 239.828125 249.007812 244.0625 C 257.023438 246.71875 261.089844 249.257812 264.589844 253.605469 C 267.976562 257.839844 269.050781 263.878906 267.414062 269.75 C 265.777344 275.679688 261.710938 280.308594 256.574219 282.226562 C 251.039062 284.261719 245.054688 283.527344 239.804688 282.679688 C 225.128906 280.308594 214.402344 277.484375 211.746094 276.640625 C 205.539062 274.71875 199.777344 272.574219 195.09375 270.878906 C 192.664062 269.976562 190.238281 269.074219 188.488281 268.507812 C 190.179688 271.21875 193.457031 275.960938 196.503906 280.253906 C 201.472656 287.367188 207.117188 295.4375 210.222656 300.800781 C 213.273438 306.109375 214.402344 309.214844 214.738281 313.5625 C 215.136719 318.867188 212.765625 324.34375 208.417969 328.351562 C 204.011719 332.304688 198.3125 334.167969 193.0625 333.207031 C 185.777344 331.851562 180.132812 326.433594 175.164062 320.789062 C 168.050781 312.714844 161.503906 304.019531 155.6875 294.988281 C 151.566406 288.664062 148.6875 283.414062 147.332031 280.871094 C 145.414062 277.371094 144.058594 274.664062 143.097656 272.6875 C 142.25 270.992188 141.515625 269.527344 141.066406 268.90625 C 140.105469 270.765625 138.695312 278.898438 136.832031 289.90625 L 136.832031 290.019531 C 136.832031 290.074219 134.855469 297.695312 132.765625 312.542969 L 132.710938 313.109375 C 132.03125 317.851562 131.355469 322.761719 128.871094 326.996094 C 125.992188 332.023438 120.347656 335.351562 113.910156 335.917969 C 113.402344 335.972656 112.722656 335.972656 112.101562 335.972656 Z M 108.492188 235.484375 C 109.222656 235.484375 109.84375 235.707031 110.410156 236.214844 C 112.5 238.136719 110.804688 242.257812 109 245.984375 L 108.828125 246.320312 C 101.996094 260.492188 97.3125 280.476562 95.5625 302.550781 C 95.503906 302.945312 95.503906 303.285156 95.503906 303.457031 C 94.660156 311.980469 94.488281 321.519531 99.910156 327.902344 C 103.070312 331.625 108.265625 333.546875 113.796875 333.039062 C 119.328125 332.53125 124.128906 329.707031 126.554688 325.53125 C 128.757812 321.746094 129.378906 317.117188 130 312.65625 L 130.054688 312.09375 C 132.089844 297.582031 134.007812 290.132812 134.175781 289.285156 C 135.703125 280.253906 136.71875 274.324219 137.566406 270.992188 C 138.242188 268.226562 138.976562 265.914062 140.953125 265.800781 C 142.871094 265.574219 143.71875 267.265625 145.75 271.386719 C 146.710938 273.363281 148.066406 276.019531 149.929688 279.460938 C 151.285156 282.003906 154.105469 287.140625 158.171875 293.351562 C 163.929688 302.269531 170.421875 310.851562 177.421875 318.8125 C 182.050781 324.0625 187.300781 329.144531 193.738281 330.328125 C 198.085938 331.117188 202.941406 329.539062 206.722656 326.152344 C 210.449219 322.761719 212.480469 318.132812 212.144531 313.730469 C 211.804688 309.835938 210.84375 307.125 207.964844 302.15625 C 204.917969 296.90625 199.328125 288.890625 194.414062 281.832031 C 187.867188 272.460938 185.15625 268.453125 184.875 267.042969 L 184.816406 266.871094 L 184.816406 266.308594 L 184.929688 266.023438 C 185.609375 264.5 187.527344 265.121094 189.449219 265.6875 C 191.140625 266.25 193.511719 267.097656 196.277344 268.113281 C 200.90625 269.808594 206.609375 271.898438 212.765625 273.816406 C 215.980469 274.832031 226.992188 277.597656 240.425781 279.742188 C 245.28125 280.535156 250.871094 281.210938 255.726562 279.40625 C 260.015625 277.824219 263.40625 273.816406 264.816406 268.792969 C 266.171875 263.824219 265.324219 258.742188 262.5 255.1875 C 259.394531 251.289062 255.671875 249.03125 248.273438 246.546875 C 235.457031 242.3125 225.351562 239.660156 217.957031 237.683594 C 206.496094 234.636719 201.699219 233.394531 201.472656 230.230469 C 201.246094 227.578125 204.125 226.449219 211.070312 223.851562 C 215.644531 222.101562 221.964844 219.730469 230.265625 215.835938 C 231.394531 215.328125 243.53125 209.0625 257.871094 199.632812 C 263.460938 195.964844 269.613281 191.449219 271.929688 184.953125 C 273.621094 180.042969 272.777344 174.285156 269.785156 169.996094 L 269.726562 169.9375 C 269.671875 169.824219 269.613281 169.769531 269.558594 169.65625 C 269.445312 169.542969 269.332031 169.375 269.21875 169.203125 C 265.777344 164.914062 260.074219 162.484375 254.597656 163.105469 C 248.667969 163.785156 244.152344 166.605469 241.273438 168.640625 C 241.105469 168.753906 224.84375 180.210938 198.875 191.050781 C 194.925781 192.6875 192.835938 192.800781 191.820312 191.503906 C 191.367188 190.882812 191.253906 190.035156 191.535156 189.1875 C 192.042969 187.4375 192.550781 185.632812 193.0625 183.882812 C 195.769531 174.738281 198.535156 165.253906 200.289062 155.765625 C 202.828125 143.289062 204.410156 130.53125 205.03125 117.773438 C 205.367188 111.789062 205.367188 105.015625 202.09375 99.761719 C 199.777344 96.09375 195.542969 93.554688 190.691406 92.988281 C 185.835938 92.425781 181.035156 93.890625 177.929688 96.941406 C 173.808594 101.003906 172.171875 107.101562 170.816406 113.480469 C 169.011719 121.726562 167.375 129.742188 165.960938 137.25 C 165.339844 140.695312 164.777344 144.363281 164.15625 149.332031 L 163.984375 150.914062 C 163.308594 156.277344 162.96875 159.210938 160.769531 159.71875 C 158.792969 160.171875 157.324219 158.082031 156.363281 156.445312 C 155.96875 155.710938 155.519531 154.976562 155.121094 154.242188 C 154.050781 152.4375 152.976562 150.515625 151.847656 148.710938 C 148.800781 143.742188 145.863281 139.226562 142.871094 134.878906 C 136.660156 125.902344 129.773438 117.152344 122.378906 108.964844 C 118.371094 104.503906 113.570312 99.539062 107.53125 97.335938 C 102.617188 95.53125 97.253906 96.148438 93.640625 98.917969 C 89.238281 102.132812 85.738281 104.675781 86.132812 110.265625 C 86.417969 113.820312 87.996094 117.207031 89.859375 120.933594 C 93.191406 127.257812 96.804688 133.523438 100.757812 139.507812 L 100.8125 139.566406 C 100.980469 139.789062 101.546875 140.695312 102.394531 141.878906 C 103.636719 143.6875 105.554688 146.507812 108.152344 150.347656 C 109.902344 152.886719 111.539062 155.316406 112.722656 157.179688 C 114.136719 159.378906 115.207031 161.1875 113.855469 162.203125 C 112.894531 162.9375 111.933594 162.203125 111.539062 161.921875 C 111.144531 161.640625 110.691406 161.242188 109.84375 160.847656 L 109.054688 160.453125 C 107.644531 159.777344 106.289062 159.15625 104.933594 158.589844 C 101.601562 157.234375 98.160156 155.992188 94.714844 154.921875 C 88.054688 152.71875 80.941406 150.800781 73.65625 149.332031 C 69.308594 148.429688 64.90625 147.695312 60.558594 147.128906 C 55.703125 146.507812 50.113281 146 45.371094 147.863281 C 40.179688 149.953125 36.226562 154.921875 35.378906 160.453125 C 34.589844 166.042969 36.960938 171.855469 41.363281 175.359375 C 44.921875 178.125 49.550781 179.367188 54.066406 180.550781 C 70.214844 185.011719 86.019531 190.542969 101.09375 197.09375 C 101.546875 197.488281 101.773438 198.109375 101.601562 198.671875 C 101.375 199.351562 100.699219 199.746094 99.964844 199.691406 L 100.078125 199.746094 C 99.230469 199.632812 95.730469 201.214844 94.375 201.777344 C 93.53125 202.175781 92.851562 202.457031 92.402344 202.625 C 89.464844 203.699219 86.472656 204.828125 83.253906 206.183594 C 77.328125 208.609375 71.34375 211.375 65.472656 214.367188 L 64.003906 215.101562 C 53.390625 220.523438 41.421875 226.675781 33.800781 235.484375 C 27.871094 242.425781 27.476562 251.683594 32.785156 258.066406 C 36.453125 262.410156 42.378906 264.671875 47.914062 263.824219 C 52.542969 263.144531 56.832031 260.492188 60.953125 257.894531 L 61.972656 257.273438 C 73.65625 249.992188 86.132812 243.894531 99.0625 239.152344 C 100.472656 238.644531 101.828125 237.910156 103.183594 237.234375 C 105.214844 236.386719 107.023438 235.484375 108.492188 235.484375 Z M 108.492188 235.484375 " fill-opacity="1" fill-rule="nonzero"/><g clip-path="url(#5bc6f1aab6)"><g clip-path="url(#ab09a6d304)"><g clip-path="url(#2fc1532043)"><g clip-path="url(#a9b286e16b)"><path fill="#ffffff" d="M 189.78125 74.175781 L 231.851562 132.160156 L 300.859375 151.386719 L 277.535156 184.941406 C 270.25 195.425781 239.476562 186.640625 208.800781 165.316406 C 178.128906 143.996094 159.167969 118.214844 166.457031 107.730469 Z M 286.429688 53.640625 L 364.941406 161.851562 L 345.894531 156.542969 L 325.242188 186.253906 L 325.582031 186.6875 C 327.207031 189.261719 327.238281 192.660156 325.394531 195.316406 C 324.164062 197.085938 322.332031 198.1875 320.367188 198.539062 L 320.203125 198.550781 L 309.191406 222.039062 L 293.167969 210.902344 L 311.347656 192.394531 L 311.300781 192.238281 C 310.949219 190.273438 311.347656 188.175781 312.578125 186.40625 C 314.421875 183.753906 317.617188 182.597656 320.59375 183.222656 L 321.117188 183.390625 L 340.769531 155.117188 L 236.152344 125.96875 L 157.640625 17.757812 Z M 286.429688 53.640625 " fill-opacity="1" fill-rule="evenodd"/></g></g></g></g></svg>