<svg version="1.2" xmlns="http://www.w3.org/2000/svg" viewBox="0 0 342 342" width="342" height="342">
    <defs>
        <clipPath clipPathUnits="userSpaceOnUse" id="cp1">
            <path d="m134 13h208v206h-208z" />
        </clipPath>
        <clipPath clipPathUnits="userSpaceOnUse" id="cp2">
            <path d="m159.78-22.41l207.33 144.11-77.36 111.28-207.32-144.11z" />
        </clipPath>
        <clipPath clipPathUnits="userSpaceOnUse" id="cp3">
            <path d="m159.78-22.41l207.33 144.11-77.36 111.28-207.32-144.11z" />
        </clipPath>
        <clipPath clipPathUnits="userSpaceOnUse" id="cp4">
            <path d="m159.78-22.41l207.3 144.1-77.63 111.67-207.3-144.09z" />
        </clipPath>
    </defs>
    <style>.a{fill:#ff3131}.b{fill:#0c2337}</style>
    <path class="a"
        d="m248 165.2c-0.2-0.3-0.4-0.5-0.6-0.8-3.7-4.7-10-7.3-15.9-6.6-6.6 0.7-11.4 3.9-14 5.8 0 0-16 11.3-42.1 22.2-4.5 1.9-5.2 1.1-5.4 0.9-0.2-0.2-0.2-0.6-0.1-1 3.3-11.1 6.8-22.2 8.9-33.6 2.5-12.6 4.1-25.3 4.7-38.2 0.3-6.5 0.3-13.3-3.2-18.8-5.3-8.6-19-10.2-26.3-3.1-4.5 4.5-6.1 11-7.5 17.3-1.7 7.9-3.4 15.8-4.8 23.8-0.8 4-1.3 8.1-1.8 12.1-0.7 5.4-1 8.9-2.4 9.2-0.5 0.1-1.4-0.1-2.8-2.6-1.6-2.6-3-5.2-4.6-7.8q-4.3-7.1-9-13.9c-6.3-9-13.2-17.7-20.7-26-4.4-4.9-9.2-9.7-15.4-12-4.9-1.8-10.9-1.5-15.2 1.7-4.6 3.4-8.5 6.3-8.1 12.6 0.3 4 2.1 7.7 3.9 11.3 3.3 6.3 7 12.6 11 18.7 0 0.1 2.5 3.7 7.4 10.9 3.5 5.1 6.5 9.5 5.9 9.9-0.2 0.2-0.7-0.7-2.5-1.5-1.7-0.8-3.3-1.6-5-2.3q-5.1-2-10.3-3.7c-7-2.3-14.1-4.2-21.3-5.7q-6.6-1.3-13.2-2.2c-5.3-0.6-10.9-1.1-15.8 0.9-5.7 2.2-10 7.7-10.9 13.7-0.8 6 1.7 12.4 6.5 16.2 3.8 2.9 8.6 4.2 13.2 5.5 16 4.4 31.6 9.9 46.9 16.5-1.4-0.6-7.1 2.3-8.6 2.8q-4.6 1.7-9.2 3.6c-6.1 2.5-12 5.2-17.8 8.2-10.9 5.6-24 12.1-32.1 21.5-5.9 6.9-7.1 17.1-1 24.4 3.9 4.7 10.4 7.2 16.4 6.2 5.3-0.7 10-3.8 14.6-6.7 11.6-7.2 24-13.2 36.8-18 4.3-1.6 8.3-4.8 9.8-3.4 1.6 1.5-0.9 6.6-1.8 8.5-11.4 23.7-13.2 54.7-13.5 57.6-0.9 8.9-1 18.8 4.7 25.6 7.4 8.6 23.3 7.2 29-2.6 2.4-4.2 3-9.2 3.7-14 2.2-15.1 4.1-22.7 4.1-22.7 3.2-18.9 4-22.3 5.5-22.4 1.5-0.2 2.3 3.1 7.6 12.9 1.4 2.6 4.3 7.8 8.3 14 5.9 9.1 12.3 17.6 19.4 25.7 4.7 5.3 10.1 10.6 17.1 11.9 10.2 1.8 20.8-7.8 20.1-18.1-0.4-4-1.4-7-4.4-12.2-6.1-10.5-22.4-32.1-23-34.7q0 0 0-0.1c0.5-1 12.3 4.3 26.2 8.6 2.8 0.9 13.7 3.7 27.8 6 5.3 0.8 11 1.4 16-0.4 10-3.8 14.1-18.1 7.4-26.5-3.4-4.3-7.6-6.6-14.9-9-30.3-10-45.5-11.4-45.8-15.1-0.2-2.8 8.5-4 28-13.1 1.1-0.5 13.2-6.7 27.8-16.3 5.9-3.9 12.2-8.6 14.6-15.3 1.8-5.3 0.9-11.6-2.3-16.3z" />
    <path class="a"
        d="m89.1 332c-5.7 0-10.9-2.3-14.3-6.2-6.1-7.3-6-17.5-5.1-26.6 0-0.2 0-0.5 0-0.9 1.8-22.5 6.6-42.8 13.6-57.3l0.2-0.3c2.2-4.8 2.2-6.1 2-6.5-0.6-0.1-2.6 0.9-4 1.6-1.3 0.7-2.8 1.5-4.4 2.1-12.7 4.6-25 10.7-36.5 17.9l-1.1 0.6c-4.3 2.7-8.8 5.5-14.1 6.2-6.5 1-13.4-1.6-17.7-6.7-6.2-7.5-5.8-18.3 1-26.2 8-9.2 20.2-15.5 31.1-21.1l1.4-0.7c5.9-3.1 11.9-5.8 18-8.3 3.3-1.3 6.2-2.5 9.2-3.6 0.4-0.1 1.1-0.4 1.8-0.7 1-0.5 2-0.9 2.8-1.2-13.8-5.7-28.2-10.7-42.8-14.7-4.5-1.3-9.6-2.6-13.7-5.7-5.2-4.1-8-11-7-17.5 1-6.6 5.6-12.4 11.7-14.9 5.4-2.1 11.3-1.6 16.5-0.9 4.4 0.5 8.9 1.3 13.4 2.2 7.4 1.5 14.6 3.4 21.3 5.7 3.5 1.1 7 2.3 10.4 3.8q1.9 0.7 3.8 1.6c-1.2-1.9-2.7-4.1-3.9-5.7q-3.9-5.8-5.7-8.5c-1.3-1.8-1.6-2.3-1.7-2.5-4-6-7.7-12.3-11-18.8-2-3.9-3.8-7.6-4.1-11.8-0.5-7.1 3.9-10.4 8.6-13.8 4.4-3.3 10.8-4.1 16.6-1.9 6.6 2.4 11.7 7.7 16 12.4 7.4 8.3 14.4 17.1 20.7 26.2 3 4.3 6 8.9 9.1 13.9 1.1 1.9 2.2 3.8 3.3 5.6 0.4 0.8 0.8 1.5 1.2 2.2 0.7 1.1 1.1 1.6 1.3 1.8 0.5-1 0.8-3.7 1.1-6.2l0.2-1.6c0.6-5 1.2-8.8 1.8-12.2 1.4-7.6 3-15.6 4.8-23.9 1.5-6.8 3.3-13.2 7.9-17.9 3.8-3.6 9.4-5.4 15.1-4.7 5.8 0.7 10.7 3.6 13.5 8.1 3.7 5.9 3.7 13.2 3.3 19.7-0.6 12.8-2.2 25.8-4.7 38.3-1.8 9.6-4.6 19.2-7.3 28.4-0.4 1.6-0.9 3.2-1.4 4.8 0.6-0.1 1.6-0.3 3.4-1 25.7-10.8 41.7-22 41.8-22.1 3.1-2.3 8.1-5.3 14.7-6 6.4-0.8 13.2 2 17.2 7.1l0.1 0.2c0 0.1 0.1 0.2 0.1 0.3q0.2 0.1 0.4 0.5c3.5 5 4.4 11.7 2.5 17.5-2.6 7.3-9.2 12.1-15.2 16.1-14.8 9.7-26.8 15.8-28 16.4-8.4 3.9-14.8 6.3-19.4 8.1-3.8 1.4-7.3 2.8-7.8 3.5 0.5 1.3 7.5 3.1 14.4 4.9 7.5 2 17.6 4.7 30.5 9 8 2.6 12.1 5.2 15.6 9.5 3.4 4.2 4.5 10.3 2.8 16.2-1.6 5.9-5.7 10.5-10.8 12.4-5.6 2.1-11.5 1.3-16.8 0.5-14.7-2.4-25.4-5.2-28.1-6.1-6.2-1.9-11.9-4-16.6-5.7-2.4-0.9-4.9-1.8-6.6-2.4 1.7 2.7 5 7.5 8 11.8 5 7.1 10.6 15.1 13.7 20.5 3.1 5.3 4.2 8.4 4.5 12.8 0.4 5.3-1.9 10.7-6.3 14.8-4.4 3.9-10.1 5.8-15.3 4.8-7.3-1.3-13-6.8-17.9-12.4-7.1-8.1-13.7-16.8-19.5-25.8-4.1-6.3-7-11.6-8.4-14.1-1.9-3.5-3.2-6.2-4.2-8.2-0.8-1.7-1.6-3.2-2-3.8-1 1.9-2.4 10-4.3 21v0.1c0 0.1-1.9 7.7-4 22.5l-0.1 0.6c-0.7 4.8-1.3 9.7-3.8 13.9-2.9 5-8.6 8.4-15 8.9-0.5 0.1-1.2 0.1-1.8 0.1zm-3.6-100.5c0.7 0 1.3 0.2 1.9 0.7 2.1 1.9 0.4 6.1-1.4 9.8l-0.2 0.3c-6.8 14.2-11.5 34.2-13.2 56.3-0.1 0.3-0.1 0.7-0.1 0.9-0.8 8.5-1 18 4.4 24.4 3.2 3.7 8.4 5.6 13.9 5.1 5.5-0.5 10.3-3.3 12.8-7.5 2.2-3.8 2.8-8.4 3.4-12.8l0.1-0.6c2-14.5 3.9-22 4.1-22.8 1.5-9 2.5-15 3.4-18.3 0.6-2.8 1.4-5.1 3.4-5.2 1.9-0.2 2.7 1.5 4.8 5.6 0.9 2 2.3 4.6 4.1 8.1 1.4 2.5 4.2 7.6 8.3 13.9 5.7 8.9 12.2 17.5 19.2 25.4 4.7 5.3 9.9 10.3 16.3 11.5 4.4 0.8 9.2-0.8 13-4.1 3.7-3.4 5.8-8.1 5.4-12.5-0.3-3.9-1.3-6.6-4.1-11.5-3.1-5.3-8.7-13.3-13.6-20.4-6.5-9.3-9.2-13.3-9.5-14.8l-0.1-0.1v-0.6l0.1-0.3c0.7-1.5 2.6-0.9 4.5-0.3 1.7 0.6 4.1 1.4 6.9 2.4 4.6 1.7 10.3 3.8 16.5 5.7 3.2 1 14.2 3.8 27.6 5.9 4.9 0.8 10.5 1.5 15.3-0.3 4.3-1.6 7.7-5.6 9.1-10.6 1.4-5 0.5-10.1-2.3-13.6-3.1-3.9-6.8-6.2-14.2-8.7-12.8-4.2-22.9-6.8-30.3-8.8-11.5-3.1-16.3-4.3-16.5-7.5-0.3-2.6 2.6-3.8 9.6-6.3 4.5-1.8 10.9-4.2 19.2-8.1 1.1-0.5 13.2-6.7 27.6-16.2 5.6-3.6 11.7-8.2 14-14.6 1.7-5 0.9-10.7-2.1-15l-0.1-0.1c0-0.1-0.1-0.1-0.1-0.2q-0.2-0.2-0.4-0.5c-3.4-4.3-9.1-6.7-14.6-6.1-5.9 0.7-10.4 3.5-13.3 5.5-0.2 0.2-16.5 11.6-42.4 22.5-4 1.6-6.1 1.7-7.1 0.4-0.4-0.6-0.5-1.5-0.3-2.3 0.5-1.8 1.1-3.6 1.6-5.3 2.7-9.2 5.4-18.6 7.2-28.1 2.5-12.5 4.1-25.3 4.7-38 0.4-6 0.4-12.8-2.9-18-2.3-3.7-6.6-6.2-11.4-6.8-4.9-0.6-9.7 0.9-12.8 3.9-4.1 4.1-5.7 10.2-7.1 16.6-1.8 8.2-3.4 16.2-4.8 23.8-0.7 3.4-1.2 7.1-1.8 12l-0.2 1.6c-0.7 5.4-1 8.3-3.2 8.8-2 0.5-3.5-1.6-4.4-3.3-0.4-0.7-0.9-1.4-1.3-2.2-1-1.8-2.1-3.7-3.3-5.5-3-5-5.9-9.5-8.9-13.8-6.2-9-13.1-17.7-20.5-25.9-4-4.5-8.8-9.5-14.9-11.7-4.9-1.8-10.2-1.2-13.9 1.6-4.4 3.2-7.9 5.8-7.5 11.4 0.3 3.5 1.9 6.9 3.8 10.6 3.3 6.4 6.9 12.6 10.9 18.6v0.1c0.2 0.2 0.7 1.1 1.6 2.3q1.9 2.7 5.8 8.4c1.7 2.6 3.3 5 4.5 6.9 1.4 2.2 2.5 4 1.2 5-1 0.7-2 0-2.4-0.3-0.4-0.3-0.8-0.7-1.7-1.1l-0.7-0.3q-2.1-1.1-4.2-1.9c-3.3-1.4-6.7-2.6-10.2-3.7-6.6-2.2-13.8-4.1-21-5.6-4.4-0.9-8.8-1.6-13.1-2.2-4.9-0.6-10.5-1.1-15.2 0.8-5.2 2.1-9.2 7-10 12.6-0.8 5.5 1.6 11.4 6 14.9 3.5 2.7 8.2 4 12.7 5.2 16.1 4.4 31.9 9.9 47 16.5 0.4 0.4 0.7 1 0.5 1.6-0.2 0.7-0.9 1-1.6 1h0.1c-0.9-0.1-4.4 1.5-5.7 2.1-0.9 0.4-1.5 0.7-2 0.8-2.9 1.1-5.9 2.2-9.1 3.6-6 2.4-12 5.2-17.8 8.2l-1.5 0.7c-10.6 5.4-22.6 11.6-30.2 20.4-5.9 6.9-6.3 16.2-1 22.6 3.7 4.3 9.6 6.6 15.1 5.7 4.6-0.7 8.9-3.3 13.1-5.9l1-0.6c11.7-7.3 24.1-13.4 37.1-18.1 1.4-0.6 2.7-1.3 4.1-2 2-0.8 3.8-1.7 5.3-1.7z" />
    <g clip-path="url(#cp1)">
        <g clip-path="url(#cp2)">
            <g clip-path="url(#cp3)">
                <g clip-path="url(#cp4)">
                    <path fill-rule="evenodd" class="b"
                        d="m263.4 49.6l78.5 108.3-19-5.4-20.7 29.8 0.4 0.4c1.6 2.6 1.6 6-0.2 8.6-1.2 1.8-3.1 2.9-5 3.2l-0.2 0.1-11 23.4-16-11.1 18.1-18.5v-0.2c-0.4-1.9 0-4 1.3-5.8 1.8-2.6 5-3.8 8-3.2l0.5 0.2 19.7-28.3-104.6-29.1-78.6-108.2zm-96.6 20.5l42.1 58 69 19.2-23.4 33.6c-7.2 10.4-38 1.7-68.7-19.7-30.7-21.3-49.6-47.1-42.3-57.6z" />
                </g>
            </g>
        </g>
    </g>
</svg>