<svg version="1.2" xmlns="http://www.w3.org/2000/svg" viewBox="0 0 353 104" width="353" height="104">
    <defs>
        <clipPath clipPathUnits="userSpaceOnUse" id="cp1">
            <path d="m8 26h75v73.7h-75z" />
        </clipPath>
        <clipPath clipPathUnits="userSpaceOnUse" id="cp2">
            <path d="m47 4h63v62h-63z" />
        </clipPath>
        <clipPath clipPathUnits="userSpaceOnUse" id="cp3">
            <path d="m55.24-6.35l61.61 42.83-23.1 33.23-61.62-42.82z" />
        </clipPath>
        <clipPath clipPathUnits="userSpaceOnUse" id="cp4">
            <path d="m55.24-6.35l61.61 42.83-23.1 33.23-61.62-42.82z" />
        </clipPath>
        <clipPath clipPathUnits="userSpaceOnUse" id="cp5">
            <path d="m55.24-6.35l61.81 42.97-23.14 33.3-61.82-42.97z" />
        </clipPath>
    </defs>
    <style>.a{fill:#ff3131}.b{fill:#fff}</style>
    <path class="a"
        d="m81.5 49.6q0-0.1-0.1-0.2c-1.1-1.5-3-2.2-4.8-2-1.9 0.2-3.4 1.2-4.2 1.7 0 0-4.7 3.4-12.5 6.6-1.3 0.6-1.6 0.4-1.6 0.3q-0.1-0.1 0-0.3c0.9-3.3 2-6.6 2.6-10q1.1-5.6 1.4-11.4c0.1-1.9 0.1-4-0.9-5.6-1.6-2.6-5.7-3-7.9-0.9-1.3 1.3-1.8 3.3-2.2 5.1q-0.8 3.6-1.5 7.1-0.3 1.8-0.5 3.6c-0.2 1.6-0.3 2.7-0.7 2.8-0.1 0-0.4-0.1-0.8-0.8q-0.7-1.2-1.4-2.3-1.3-2.1-2.7-4.2-2.8-4-6.2-7.7c-1.3-1.5-2.7-2.9-4.5-3.6-1.5-0.5-3.3-0.4-4.6 0.5-1.4 1-2.5 1.9-2.4 3.8 0.1 1.2 0.6 2.3 1.2 3.3q1.5 2.9 3.2 5.6 0.1 0 2.2 3.2c1.1 1.6 2 2.9 1.8 3 0 0.1-0.2-0.2-0.7-0.4q-0.8-0.4-1.5-0.7-1.6-0.6-3.1-1.1-3.1-1.1-6.3-1.7-2-0.4-4-0.7c-1.6-0.2-3.2-0.3-4.7 0.3-1.7 0.7-3 2.3-3.3 4.1-0.2 1.8 0.6 3.7 2 4.8 1.1 0.9 2.5 1.3 3.9 1.6q7.2 2 14 5c-0.4-0.2-2.1 0.7-2.5 0.8q-1.4 0.5-2.8 1.1-2.7 1.1-5.3 2.4c-3.3 1.7-7.2 3.6-9.6 6.4-1.8 2.1-2.1 5.1-0.3 7.3 1.2 1.4 3.1 2.1 4.9 1.9 1.6-0.3 3-1.2 4.4-2 3.4-2.2 7.1-4 10.9-5.4 1.3-0.5 2.5-1.4 3-1 0.4 0.4-0.3 1.9-0.6 2.5-3.4 7.1-3.9 16.3-4 17.2-0.3 2.6-0.3 5.6 1.4 7.6 2.2 2.6 6.9 2.2 8.6-0.8 0.8-1.2 1-2.7 1.2-4.1 0.6-4.5 1.2-6.8 1.2-6.8 0.9-5.6 1.2-6.6 1.6-6.7 0.5 0 0.7 1 2.3 3.9 0.4 0.7 1.3 2.3 2.5 4.2q2.6 4 5.7 7.6c1.4 1.6 3.1 3.2 5.1 3.6 3.1 0.5 6.3-2.4 6-5.4-0.1-1.3-0.4-2.1-1.3-3.7-1.8-3.1-6.7-9.6-6.8-10.3q0 0 0-0.1c0.1-0.3 3.6 1.3 7.8 2.6 0.8 0.3 4.1 1.1 8.3 1.8 1.5 0.2 3.2 0.4 4.7-0.1 3-1.1 4.2-5.4 2.2-7.9-1-1.3-2.2-2-4.4-2.7-9-3-13.6-3.4-13.7-4.5 0-0.9 2.6-1.2 8.4-3.9 0.3-0.2 3.9-2 8.3-4.9 1.8-1.2 3.6-2.5 4.3-4.6 0.6-1.5 0.3-3.4-0.7-4.8z" />
    <g clip-path="url(#cp1)">
        <path class="a"
            d="m34.2 99.3c-1.7 0-3.3-0.6-4.3-1.8-1.8-2.2-1.8-5.2-1.5-8q0 0 0-0.2c0.5-6.7 2-12.8 4-17.1l0.1-0.1c0.7-1.4 0.6-1.8 0.6-1.9-0.2-0.1-0.8 0.2-1.2 0.5-0.4 0.2-0.8 0.4-1.3 0.6-3.8 1.4-7.5 3.2-10.9 5.3l-0.3 0.2c-1.3 0.8-2.7 1.6-4.2 1.9-2 0.2-4-0.6-5.3-2.1-1.9-2.2-1.7-5.4 0.3-7.8 2.4-2.7 6-4.6 9.3-6.3l0.4-0.2q2.6-1.3 5.3-2.4c1-0.4 1.9-0.8 2.8-1.1 0.1 0 0.3-0.1 0.5-0.2q0.5-0.2 0.9-0.4c-4.2-1.7-8.4-3.2-12.8-4.4-1.3-0.3-2.9-0.7-4.1-1.7-1.5-1.2-2.4-3.2-2.1-5.2 0.3-1.9 1.7-3.7 3.5-4.4 1.6-0.7 3.4-0.5 4.9-0.3q2 0.2 4 0.6 3.4 0.7 6.4 1.7 1.6 0.5 3.1 1.2 0.6 0.2 1.1 0.5c-0.3-0.6-0.8-1.2-1.1-1.7q-1.2-1.8-1.8-2.6c-0.3-0.5-0.4-0.7-0.5-0.7-1.1-1.8-2.3-3.7-3.2-5.6-0.6-1.2-1.2-2.3-1.3-3.5-0.1-2.2 1.2-3.1 2.6-4.2 1.3-0.9 3.2-1.2 5-0.5 1.9 0.7 3.5 2.3 4.7 3.7 2.2 2.5 4.3 5.1 6.2 7.8 0.9 1.3 1.8 2.7 2.7 4.2q0.5 0.8 1 1.6 0.2 0.3 0.4 0.7c0.2 0.3 0.3 0.4 0.4 0.5 0.1-0.3 0.2-1.1 0.3-1.9v-0.4c0.2-1.5 0.4-2.6 0.6-3.7q0.6-3.4 1.4-7.1c0.4-2 1-3.9 2.4-5.3 1.1-1.1 2.7-1.6 4.5-1.4 1.7 0.2 3.1 1 4 2.4 1.1 1.8 1.1 3.9 1 5.8-0.2 3.9-0.7 7.7-1.4 11.5-0.6 2.9-1.4 5.7-2.2 8.4q-0.2 0.8-0.4 1.5c0.1 0 0.5-0.1 1-0.3 7.6-3.2 12.4-6.6 12.5-6.6 0.9-0.7 2.4-1.6 4.3-1.8 2-0.2 4 0.6 5.2 2.1v0.1q0 0 0 0.1 0.1 0 0.1 0.1c1.1 1.5 1.4 3.5 0.8 5.2-0.8 2.2-2.8 3.7-4.5 4.8-4.4 2.9-8 4.8-8.4 4.9-2.5 1.2-4.4 1.9-5.8 2.4-1.1 0.5-2.2 0.9-2.3 1.1 0.1 0.4 2.2 0.9 4.3 1.5 2.2 0.6 5.2 1.4 9.1 2.6 2.4 0.8 3.6 1.6 4.6 2.9 1 1.2 1.4 3 0.9 4.8-0.5 1.7-1.7 3.1-3.3 3.7-1.6 0.6-3.4 0.4-5 0.1-4.3-0.7-7.5-1.5-8.3-1.8-1.9-0.5-3.6-1.2-5-1.7-0.7-0.3-1.4-0.5-2-0.7 0.5 0.8 1.5 2.2 2.4 3.5 1.5 2.1 3.2 4.5 4.1 6.1 0.9 1.6 1.3 2.5 1.4 3.8 0.1 1.6-0.6 3.3-1.9 4.5-1.3 1.1-3 1.7-4.6 1.4-2.2-0.4-3.9-2-5.3-3.7-2.2-2.4-4.1-5-5.8-7.7-1.3-1.9-2.1-3.4-2.5-4.2q-0.9-1.6-1.3-2.4c-0.2-0.6-0.5-1-0.6-1.2-0.3 0.6-0.7 3-1.3 6.3 0 0-0.6 2.3-1.2 6.7v0.2c-0.2 1.4-0.4 2.9-1.1 4.2-0.9 1.4-2.6 2.4-4.5 2.6q-0.2 0-0.5 0zm-1.1-29.9q0.3 0 0.6 0.2c0.6 0.6 0.1 1.8-0.5 2.9v0.1c-2 4.2-3.4 10.2-4 16.8q0 0.1 0 0.2c-0.2 2.6-0.3 5.4 1.3 7.3 1 1.1 2.5 1.7 4.2 1.6 1.6-0.2 3-1 3.8-2.3 0.6-1.1 0.8-2.5 1-3.8v-0.2c0.6-4.3 1.2-6.5 1.2-6.8 0.5-2.7 0.8-4.5 1.1-5.5 0.2-0.8 0.4-1.5 1-1.5 0.5-0.1 0.8 0.4 1.4 1.7q0.4 0.8 1.2 2.4c0.4 0.7 1.3 2.3 2.5 4.1 1.7 2.7 3.7 5.2 5.7 7.6 1.4 1.6 3 3.1 4.9 3.4 1.3 0.3 2.7-0.2 3.9-1.2 1.1-1 1.7-2.4 1.6-3.7-0.1-1.2-0.4-2-1.3-3.5-0.9-1.5-2.5-3.9-4-6-1.9-2.8-2.8-4-2.8-4.4l-0.1-0.1v-0.1l0.1-0.1c0.2-0.5 0.8-0.3 1.3-0.1 0.5 0.1 1.2 0.4 2.1 0.7 1.3 0.5 3 1.1 4.9 1.7 0.9 0.3 4.2 1.1 8.2 1.8 1.5 0.2 3.1 0.4 4.6-0.1 1.3-0.5 2.3-1.7 2.7-3.2 0.4-1.5 0.2-3-0.7-4.1-0.9-1.1-2-1.8-4.2-2.5-3.9-1.3-6.9-2.1-9.1-2.7-3.4-0.9-4.8-1.3-4.9-2.2-0.1-0.8 0.8-1.1 2.9-1.9 1.3-0.5 3.2-1.2 5.7-2.4 0.3-0.1 4-2 8.2-4.8 1.7-1.1 3.5-2.5 4.2-4.4 0.5-1.5 0.3-3.2-0.6-4.5q-0.1 0-0.1-0.1 0 0-0.1-0.1c-1-1.3-2.7-2-4.3-1.8-1.8 0.2-3.2 1-4 1.6-0.1 0.1-4.9 3.5-12.7 6.7-1.1 0.5-1.8 0.5-2.1 0.1-0.1-0.1-0.1-0.4 0-0.6q0.2-0.8 0.4-1.6c0.8-2.8 1.6-5.6 2.2-8.4 0.7-3.7 1.2-7.5 1.4-11.3 0.1-1.8 0.1-3.8-0.9-5.4-0.7-1.1-2-1.9-3.4-2-1.4-0.2-2.9 0.2-3.8 1.2-1.2 1.2-1.7 3-2.1 4.9-0.6 2.4-1.1 4.8-1.5 7.1-0.2 1-0.3 2.1-0.5 3.6l-0.1 0.4c-0.2 1.6-0.3 2.5-0.9 2.7-0.6 0.1-1.1-0.5-1.3-1q-0.2-0.3-0.4-0.7c-0.3-0.5-0.6-1.1-1-1.6-0.9-1.5-1.8-2.8-2.7-4.1-1.8-2.7-3.9-5.3-6.1-7.8-1.2-1.3-2.6-2.8-4.4-3.4-1.5-0.6-3.1-0.4-4.1 0.4-1.4 1-2.4 1.8-2.3 3.4 0.1 1.1 0.6 2.1 1.1 3.2 1 1.9 2.1 3.8 3.3 5.5v0.1c0 0 0.2 0.3 0.5 0.6q0.5 0.9 1.7 2.6c0.5 0.7 1 1.5 1.4 2 0.4 0.7 0.7 1.2 0.3 1.5-0.3 0.2-0.6 0-0.7-0.1-0.1-0.1-0.3-0.2-0.5-0.3l-0.2-0.1q-0.7-0.3-1.3-0.6-1.5-0.6-3-1.1c-2-0.6-4.1-1.2-6.3-1.6q-2-0.4-3.9-0.7c-1.5-0.2-3.1-0.3-4.5 0.2-1.6 0.7-2.8 2.1-3 3.8-0.2 1.7 0.5 3.4 1.8 4.4 1 0.9 2.4 1.2 3.8 1.6 4.8 1.3 9.5 3 14 4.9 0.1 0.1 0.2 0.3 0.1 0.5 0 0.2-0.2 0.3-0.5 0.3h0.1c-0.3 0-1.3 0.4-1.7 0.6q-0.4 0.2-0.6 0.3c-0.9 0.3-1.8 0.6-2.7 1q-2.7 1.1-5.3 2.5l-0.5 0.2c-3.1 1.6-6.7 3.4-9 6.1-1.8 2-1.9 4.8-0.3 6.7 1.1 1.3 2.9 2 4.5 1.7 1.4-0.2 2.7-1 3.9-1.8l0.3-0.1c3.5-2.2 7.2-4 11.1-5.4 0.4-0.2 0.8-0.4 1.2-0.6 0.6-0.3 1.1-0.5 1.6-0.5z" />
    </g>
    <g clip-path="url(#cp2)">
        <g clip-path="url(#cp3)">
            <g clip-path="url(#cp4)">
                <g clip-path="url(#cp5)">
                    <path fill-rule="evenodd" class="b"
                        d="m86.1 15.1l23.5 32.3-5.7-1.6-6.2 8.9 0.1 0.1c0.5 0.8 0.5 1.8 0 2.6-0.4 0.5-0.9 0.8-1.5 0.9h-0.1l-3.3 7-4.7-3.3 5.4-5.5c-0.1-0.6 0-1.2 0.3-1.8 0.6-0.8 1.5-1.1 2.4-0.9h0.2l5.8-8.4-31.1-8.7-23.5-32.3zm-28.8 6.2l12.6 17.2 20.5 5.8-6.9 10c-2.2 3.1-11.4 0.5-20.5-5.9-9.2-6.3-14.8-14-12.6-17.1z" />
                </g>
            </g>
        </g>
    </g>
    <path class="b"
        d="m220.4 90.9q-2.1 2.5-5.9 3.9-3.8 1.3-8.5 1.3-4.8 0-8.5-2.1-3.7-2.1-5.7-6.2-2-4-2-9.5v-2.5q0-5.6 1.9-9.7 1.9-4.1 5.4-6.3 3.6-2.2 8.4-2.2 6.7 0 10.4 3.2 3.8 3.2 4.5 9.3h-7.5q-0.6-3.3-2.3-4.8-1.8-1.5-4.9-1.5-3.9 0-6 3-2 3-2.1 8.8v2.4q0 5.9 2.3 8.9 2.2 3 6.5 3 4.4 0 6.3-1.8v-6.5h-7.1v-5.7h14.8z" />
    <path class="b"
        d="m239 96.1q-6.1 0-10-3.7-3.8-3.8-3.8-10v-0.8q0-4.2 1.6-7.5 1.6-3.3 4.6-5.1 2.9-1.8 6.8-1.8 5.7 0 9 3.6 3.2 3.7 3.2 10.3v3h-17.7q0.4 2.8 2.2 4.4 1.8 1.6 4.6 1.6 4.3 0 6.7-3.1l3.7 4.1q-1.7 2.4-4.6 3.7-2.8 1.3-6.3 1.3zm-0.9-22.8q-2.2 0-3.6 1.5-1.3 1.5-1.7 4.2h10.3v-0.6q0-2.4-1.3-3.8-1.3-1.3-3.7-1.3z" />
    <path class="b"
        d="m261.5 67.8l0.3 3.2q3-3.8 8-3.8 4.4 0 6.5 2.6 2.2 2.6 2.3 7.8v18h-7.5v-17.8q0-2.4-1-3.4-1-1.1-3.4-1.1-3.2 0-4.7 2.7v19.6h-7.5v-27.8z" />
    <path class="b"
        d="m293.1 60.9v6.9h4.8v5.4h-4.8v13.9q0 1.6 0.6 2.2 0.6 0.7 2.3 0.7 1.2 0 2.2-0.2v5.7q-2.2 0.6-4.5 0.6-7.9 0-8-7.9v-15h-4.1v-5.4h4.1v-6.9z" />
    <path class="b"
        d="m314.9 96.1q-6.2 0-10-3.7-3.9-3.8-3.9-10v-0.8q0-4.2 1.7-7.5 1.6-3.3 4.6-5.1 2.9-1.8 6.7-1.8 5.8 0 9 3.6 3.3 3.7 3.3 10.3v3h-17.7q0.4 2.8 2.2 4.4 1.8 1.6 4.6 1.6 4.3 0 6.7-3.1l3.7 4.1q-1.7 2.4-4.6 3.7-2.9 1.3-6.3 1.3zm-0.9-22.8q-2.2 0-3.6 1.5-1.4 1.5-1.7 4.2h10.3v-0.6q0-2.4-1.3-3.8-1.3-1.3-3.7-1.3z" />
    <path class="b"
        d="m127.8 12.7l7.7 21.7 7.6-21.7h8.1v29.9h-6.1v-8.2l0.6-14.1-8.1 22.3h-4.3l-8-22.3 0.6 14.1v8.2h-6.2v-29.9z" />
    <path class="b"
        d="m169.1 42.6q-0.4-0.8-0.6-2-2.1 2.4-5.6 2.4-3.2 0-5.4-1.9-2.2-1.9-2.2-4.7 0-3.6 2.7-5.5 2.6-1.9 7.6-1.9h2.7v-1.2q0-1.6-0.8-2.5-0.8-0.9-2.5-0.9-1.5 0-2.4 0.7-0.8 0.7-0.8 2h-6q0-2 1.2-3.6 1.2-1.7 3.4-2.6 2.2-0.9 4.9-0.9 4.1 0 6.5 2 2.5 2.1 2.5 5.8v9.7q0 3.2 0.8 4.8v0.3zm-4.9-4.1q1.3 0 2.4-0.6 1.2-0.6 1.7-1.6v-3.8h-2.2q-4.5 0-4.8 3.1v0.3q0 1.1 0.8 1.9 0.8 0.7 2.1 0.7z" />
    <path class="b"
        d="m185.9 14.9v5.5h3.8v4.3h-3.8v11.1q0 1.3 0.5 1.8 0.5 0.5 1.8 0.5 1 0 1.8-0.1v4.5q-1.8 0.5-3.6 0.5-6.3 0-6.4-6.3v-12h-3.3v-4.3h3.3v-5.5z" />
    <path class="b"
        d="m203.3 43q-4.9 0-8-3-3.1-3-3.1-8v-0.6q0-3.3 1.3-5.9 1.3-2.7 3.7-4.1 2.4-1.4 5.4-1.4 4.6 0 7.2 2.8 2.6 2.9 2.6 8.2v2.4h-14.1q0.3 2.2 1.7 3.5 1.5 1.3 3.7 1.3 3.4 0 5.3-2.5l3 3.3q-1.4 1.9-3.7 3-2.2 1-5 1zm-0.7-18.2q-1.8 0-2.9 1.2-1.1 1.2-1.4 3.4h8.3v-0.5q0-2-1.1-3-1-1.1-2.9-1.1z" />
    <path class="b"
        d="m221.4 20.4l0.2 2.5q2.3-2.9 6.4-2.9 4.3 0 5.9 3.4 2.3-3.4 6.6-3.4 3.7 0 5.4 2.1 1.8 2.1 1.8 6.3v14.2h-6v-14.2q0-1.9-0.7-2.7-0.7-0.9-2.6-0.9-2.7 0-3.7 2.5v15.3h-5.9v-14.2q0-1.9-0.8-2.7-0.8-0.9-2.6-0.9-2.5 0-3.7 2.1v15.7h-5.9v-22.2z" />
    <path class="b"
        d="m265.2 42.6q-0.4-0.8-0.6-2-2.2 2.4-5.6 2.4-3.3 0-5.5-1.9-2.1-1.9-2.1-4.7 0-3.6 2.6-5.5 2.6-1.9 7.6-1.9h2.7v-1.2q0-1.6-0.8-2.5-0.8-0.9-2.5-0.9-1.5 0-2.3 0.7-0.9 0.7-0.9 2h-5.9q0-2 1.2-3.6 1.2-1.7 3.3-2.6 2.2-0.9 4.9-0.9 4.2 0 6.6 2 2.4 2.1 2.4 5.8v9.7q0 3.2 0.9 4.8v0.3zm-4.9-4.1q1.3 0 2.4-0.6 1.1-0.6 1.6-1.6v-3.8h-2.2q-4.5 0-4.8 3.1v0.3q0 1.1 0.8 1.9 0.8 0.7 2.2 0.7zm2.2-27.5h6.5l-5.7 6.4h-4.8z" />
    <path class="b"
        d="m282 14.9v5.5h3.8v4.3h-3.8v11.1q0 1.3 0.4 1.8 0.5 0.5 1.8 0.5 1 0 1.8-0.1v4.5q-1.8 0.5-3.6 0.5-6.3 0-6.4-6.3v-12h-3.2v-4.3h3.2v-5.5z" />
    <path class="b"
        d="m295.3 42.6h-5.9v-22.2h5.9zm-6.3-28q0-1.4 0.9-2.2 0.9-0.9 2.5-0.9 1.5 0 2.4 0.9 0.9 0.8 0.9 2.2 0 1.3-0.9 2.2-0.9 0.8-2.4 0.8-1.5 0-2.4-0.8-1-0.9-1-2.2z" />
    <path class="b"
        d="m309.5 38.2q1.6 0 2.7-0.9 1-0.9 1-2.4h5.6q0 2.3-1.2 4.2-1.2 1.8-3.3 2.9-2.2 1-4.7 1-4.8 0-7.5-3-2.8-3-2.8-8.4v-0.4q0-5.1 2.8-8.2 2.7-3 7.5-3 4.1 0 6.6 2.3 2.6 2.4 2.6 6.4h-5.6q0-1.8-1-2.8-1.1-1.1-2.7-1.1-2.1 0-3.2 1.5-1 1.5-1 4.9v0.6q0 3.4 1 4.9 1 1.5 3.2 1.5z" />
    <path class="b"
        d="m335.1 42.6q-0.4-0.8-0.6-2-2.2 2.4-5.6 2.4-3.3 0-5.4-1.9-2.2-1.9-2.2-4.7 0-3.6 2.6-5.5 2.7-1.9 7.6-1.9h2.7v-1.2q0-1.6-0.7-2.5-0.8-0.9-2.5-0.9-1.5 0-2.4 0.7-0.9 0.7-0.9 2h-5.9q0-2 1.2-3.6 1.2-1.7 3.4-2.6 2.2-0.9 4.9-0.9 4.1 0 6.5 2 2.4 2.1 2.4 5.8v9.7q0 3.2 0.9 4.8v0.3zm-4.9-4.1q1.3 0 2.4-0.6 1.1-0.6 1.6-1.6v-3.8h-2.2q-4.4 0-4.7 3.1v0.3q0 1.1 0.7 1.9 0.8 0.7 2.2 0.7z" />
    <path class="b"
        d="m129.3 56.6q0.6-0.8 1.5-1.3 0.9-0.5 2.2-0.5 1.4 0 2.6 0.7 1.2 0.8 1.9 2.1 0.6 1.4 0.6 3.2 0 1.8-0.6 3.2-0.7 1.4-1.9 2.1-1.2 0.8-2.6 0.8-1.3 0-2.2-0.5-0.9-0.6-1.5-1.3v7.2h-3.5v-17.4h3.5zm5.2 4.2q0-1.3-0.8-2.1-0.7-0.8-1.8-0.8-1.1 0-1.8 0.8-0.8 0.8-0.8 2.1 0 1.4 0.8 2.2 0.7 0.8 1.8 0.8 1.1 0 1.8-0.8 0.8-0.8 0.8-2.2z" />
    <path class="b"
        d="m139.3 60.8q0-1.8 0.7-3.2 0.7-1.3 1.9-2.1 1.1-0.7 2.6-0.7 1.2 0 2.2 0.5 0.9 0.5 1.4 1.3v-1.7h3.6v11.8h-3.6v-1.7q-0.5 0.8-1.4 1.4-1 0.5-2.2 0.5-1.5 0-2.6-0.8-1.2-0.7-1.9-2.1-0.7-1.4-0.7-3.2zm8.8 0q0-1.3-0.7-2.1-0.8-0.8-1.9-0.8-1 0-1.8 0.8-0.7 0.8-0.7 2.1 0 1.3 0.7 2.1 0.8 0.8 1.8 0.8 1.1 0 1.9-0.8 0.7-0.7 0.7-2.1z" />
    <path class="b"
        d="m157.9 56.9q0.7-1 1.6-1.5 0.9-0.6 2.1-0.6v3.8h-1q-1.3 0-2 0.6-0.7 0.6-0.7 2v5.5h-3.6v-11.8h3.6z" />
    <path class="b"
        d="m162.6 60.8q0-1.8 0.7-3.2 0.7-1.3 1.9-2.1 1.1-0.7 2.6-0.7 1.2 0 2.2 0.5 0.9 0.5 1.4 1.3v-1.7h3.6v11.8h-3.6v-1.7q-0.5 0.8-1.4 1.4-1 0.5-2.2 0.5-1.5 0-2.6-0.8-1.2-0.7-1.9-2.1-0.7-1.4-0.7-3.2zm8.8 0q0-1.3-0.7-2.1-0.8-0.8-1.9-0.8-1 0-1.8 0.8-0.7 0.8-0.7 2.1 0 1.3 0.7 2.1 0.8 0.8 1.8 0.8 1.1 0 1.9-0.8 0.7-0.7 0.7-2.1z" />
    <path class="b" d="m163.4 76.2v18.8h-4.3v-18.8z" />
    <path class="b"
        d="m165.7 87.9q0-2.2 0.8-3.8 0.9-1.7 2.3-2.6 1.4-0.9 3.2-0.9 1.5 0 2.6 0.7 1.1 0.6 1.7 1.6v-2h4.4v14.1h-4.4v-2q-0.6 1-1.7 1.6-1.2 0.6-2.7 0.6-1.7 0-3.1-0.9-1.4-0.9-2.3-2.5-0.8-1.7-0.8-3.9zm10.6 0q0-1.6-0.9-2.5-0.9-1-2.2-1-1.3 0-2.2 1-0.9 0.9-0.9 2.5 0 1.6 0.9 2.6 0.9 0.9 2.2 0.9 1.3 0 2.2-0.9 0.9-0.9 0.9-2.6z" />
</svg>