<svg xmlns="http://www.w3.org/2000/svg" xmlns:xlink="http://www.w3.org/1999/xlink" width="500" zoomAndPan="magnify" viewBox="0 0 375 374.999991" height="500" preserveAspectRatio="xMidYMid meet" version="1.0"><defs><g/><clipPath id="ecf687986b"><path d="M 18 133.0625 L 74.671875 133.0625 L 74.671875 189 L 18 189 Z M 18 133.0625 " clip-rule="nonzero"/></clipPath><clipPath id="09d8a3cf9a"><path d="M 18 133.0625 L 74.671875 133.0625 L 74.671875 189.3125 L 18 189.3125 Z M 18 133.0625 " clip-rule="nonzero"/></clipPath><clipPath id="220332f86f"><path d="M 47 116 L 95 116 L 95 164 L 47 164 Z M 47 116 " clip-rule="nonzero"/></clipPath><clipPath id="1de20765e4"><path d="M 53.558594 108.75 L 100.363281 141.28125 L 82.8125 166.53125 L 36.007812 134 Z M 53.558594 108.75 " clip-rule="nonzero"/></clipPath><clipPath id="f1058c94e7"><path d="M 53.558594 108.75 L 100.363281 141.28125 L 82.8125 166.53125 L 36.007812 134 Z M 53.558594 108.75 " clip-rule="nonzero"/></clipPath><clipPath id="21f3fcdf8e"><path d="M 53.558594 108.75 L 100.363281 141.28125 L 82.8125 166.53125 L 36.007812 134 Z M 53.558594 108.75 " clip-rule="nonzero"/></clipPath><clipPath id="fefc9672ff"><path d="M 53.558594 108.75 L 100.363281 141.28125 L 82.8125 166.53125 L 36.007812 134 Z M 53.558594 108.75 " clip-rule="nonzero"/></clipPath></defs><g fill="#000000" fill-opacity="1"><g transform="translate(158.307885, 259.445809)"><g><path d="M 39.6875 -5.6875 C 38.007812 -3.6875 35.644531 -2.132812 32.59375 -1.03125 C 29.539062 0.0703125 26.15625 0.625 22.4375 0.625 C 18.539062 0.625 15.117188 -0.222656 12.171875 -1.921875 C 9.234375 -3.628906 6.960938 -6.101562 5.359375 -9.34375 C 3.765625 -12.582031 2.945312 -16.390625 2.90625 -20.765625 L 2.90625 -23.828125 C 2.90625 -28.328125 3.660156 -32.222656 5.171875 -35.515625 C 6.691406 -38.804688 8.878906 -41.320312 11.734375 -43.0625 C 14.597656 -44.8125 17.953125 -45.6875 21.796875 -45.6875 C 27.140625 -45.6875 31.316406 -44.410156 34.328125 -41.859375 C 37.335938 -39.316406 39.125 -35.609375 39.6875 -30.734375 L 30.640625 -30.734375 C 30.234375 -33.316406 29.320312 -35.207031 27.90625 -36.40625 C 26.488281 -37.601562 24.539062 -38.203125 22.0625 -38.203125 C 18.90625 -38.203125 16.5 -37.015625 14.84375 -34.640625 C 13.195312 -32.265625 12.363281 -28.734375 12.34375 -24.046875 L 12.34375 -21.171875 C 12.34375 -16.441406 13.238281 -12.867188 15.03125 -10.453125 C 16.832031 -8.046875 19.46875 -6.84375 22.9375 -6.84375 C 26.425781 -6.84375 28.910156 -7.582031 30.390625 -9.0625 L 30.390625 -16.84375 L 21.9375 -16.84375 L 21.9375 -23.671875 L 39.6875 -23.671875 Z M 39.6875 -5.6875 "/></g></g></g><g fill="#000000" fill-opacity="1"><g transform="translate(201.486399, 259.445809)"><g><path d="M 18.84375 0.625 C 13.9375 0.625 9.941406 -0.878906 6.859375 -3.890625 C 3.773438 -6.910156 2.234375 -10.925781 2.234375 -15.9375 L 2.234375 -16.8125 C 2.234375 -20.175781 2.878906 -23.179688 4.171875 -25.828125 C 5.472656 -28.484375 7.316406 -30.523438 9.703125 -31.953125 C 12.085938 -33.390625 14.804688 -34.109375 17.859375 -34.109375 C 22.441406 -34.109375 26.046875 -32.660156 28.671875 -29.765625 C 31.304688 -26.878906 32.625 -22.785156 32.625 -17.484375 L 32.625 -13.828125 L 11.296875 -13.828125 C 11.585938 -11.648438 12.457031 -9.898438 13.90625 -8.578125 C 15.363281 -7.253906 17.207031 -6.59375 19.4375 -6.59375 C 22.882812 -6.59375 25.578125 -7.84375 27.515625 -10.34375 L 31.90625 -5.421875 C 30.570312 -3.515625 28.757812 -2.03125 26.46875 -0.96875 C 24.175781 0.09375 21.632812 0.625 18.84375 0.625 Z M 17.828125 -26.859375 C 16.054688 -26.859375 14.617188 -26.257812 13.515625 -25.0625 C 12.410156 -23.875 11.703125 -22.164062 11.390625 -19.9375 L 23.828125 -19.9375 L 23.828125 -20.640625 C 23.785156 -22.617188 23.25 -24.148438 22.21875 -25.234375 C 21.1875 -26.316406 19.722656 -26.859375 17.828125 -26.859375 Z M 17.828125 -26.859375 "/></g></g></g><g fill="#000000" fill-opacity="1"><g transform="translate(235.75064, 259.445809)"><g><path d="M 11.671875 -33.484375 L 11.953125 -29.625 C 14.335938 -32.613281 17.546875 -34.109375 21.578125 -34.109375 C 25.117188 -34.109375 27.753906 -33.066406 29.484375 -30.984375 C 31.222656 -28.898438 32.113281 -25.785156 32.15625 -21.640625 L 32.15625 0 L 23.21875 0 L 23.21875 -21.421875 C 23.21875 -23.316406 22.800781 -24.691406 21.96875 -25.546875 C 21.144531 -26.398438 19.773438 -26.828125 17.859375 -26.828125 C 15.335938 -26.828125 13.445312 -25.753906 12.1875 -23.609375 L 12.1875 0 L 3.25 0 L 3.25 -33.484375 Z M 11.671875 -33.484375 "/></g></g></g><g fill="#000000" fill-opacity="1"><g transform="translate(271.252974, 259.445809)"><g><path d="M 14.140625 -41.71875 L 14.140625 -33.484375 L 19.875 -33.484375 L 19.875 -26.921875 L 14.140625 -26.921875 L 14.140625 -10.21875 C 14.140625 -8.976562 14.375 -8.085938 14.84375 -7.546875 C 15.320312 -7.015625 16.234375 -6.75 17.578125 -6.75 C 18.566406 -6.75 19.445312 -6.820312 20.21875 -6.96875 L 20.21875 -0.1875 C 18.457031 0.351562 16.648438 0.625 14.796875 0.625 C 8.523438 0.625 5.328125 -2.546875 5.203125 -8.890625 L 5.203125 -26.921875 L 0.3125 -26.921875 L 0.3125 -33.484375 L 5.203125 -33.484375 L 5.203125 -41.71875 Z M 14.140625 -41.71875 "/></g></g></g><g fill="#000000" fill-opacity="1"><g transform="translate(292.671994, 259.445809)"><g><path d="M 18.84375 0.625 C 13.9375 0.625 9.941406 -0.878906 6.859375 -3.890625 C 3.773438 -6.910156 2.234375 -10.925781 2.234375 -15.9375 L 2.234375 -16.8125 C 2.234375 -20.175781 2.878906 -23.179688 4.171875 -25.828125 C 5.472656 -28.484375 7.316406 -30.523438 9.703125 -31.953125 C 12.085938 -33.390625 14.804688 -34.109375 17.859375 -34.109375 C 22.441406 -34.109375 26.046875 -32.660156 28.671875 -29.765625 C 31.304688 -26.878906 32.625 -22.785156 32.625 -17.484375 L 32.625 -13.828125 L 11.296875 -13.828125 C 11.585938 -11.648438 12.457031 -9.898438 13.90625 -8.578125 C 15.363281 -7.253906 17.207031 -6.59375 19.4375 -6.59375 C 22.882812 -6.59375 25.578125 -7.84375 27.515625 -10.34375 L 31.90625 -5.421875 C 30.570312 -3.515625 28.757812 -2.03125 26.46875 -0.96875 C 24.175781 0.09375 21.632812 0.625 18.84375 0.625 Z M 17.828125 -26.859375 C 16.054688 -26.859375 14.617188 -26.257812 13.515625 -25.0625 C 12.410156 -23.875 11.703125 -22.164062 11.390625 -19.9375 L 23.828125 -19.9375 L 23.828125 -20.640625 C 23.785156 -22.617188 23.25 -24.148438 22.21875 -25.234375 C 21.1875 -26.316406 19.722656 -26.859375 17.828125 -26.859375 Z M 17.828125 -26.859375 "/></g></g></g><g fill="#000000" fill-opacity="1"><g transform="translate(73.840862, 195.751041)"><g><path d="M 12.90625 -35.984375 L 22.140625 -9.890625 L 31.328125 -35.984375 L 41.078125 -35.984375 L 41.078125 0 L 33.625 0 L 33.625 -9.828125 L 34.375 -26.8125 L 24.65625 0 L 19.578125 0 L 9.890625 -26.78125 L 10.625 -9.828125 L 10.625 0 L 3.21875 0 L 3.21875 -35.984375 Z M 12.90625 -35.984375 "/></g></g></g><g fill="#000000" fill-opacity="1"><g transform="translate(118.166642, 195.751041)"><g><path d="M 18.234375 0 C 17.910156 -0.644531 17.671875 -1.441406 17.515625 -2.390625 C 15.785156 -0.460938 13.539062 0.5 10.78125 0.5 C 8.15625 0.5 5.984375 -0.253906 4.265625 -1.765625 C 2.546875 -3.285156 1.6875 -5.203125 1.6875 -7.515625 C 1.6875 -10.347656 2.734375 -12.519531 4.828125 -14.03125 C 6.929688 -15.550781 9.96875 -16.316406 13.9375 -16.328125 L 17.21875 -16.328125 L 17.21875 -17.859375 C 17.21875 -19.097656 16.898438 -20.085938 16.265625 -20.828125 C 15.640625 -21.566406 14.640625 -21.9375 13.265625 -21.9375 C 12.066406 -21.9375 11.125 -21.648438 10.4375 -21.078125 C 9.757812 -20.503906 9.421875 -19.710938 9.421875 -18.703125 L 2.28125 -18.703125 C 2.28125 -20.253906 2.753906 -21.6875 3.703125 -23 C 4.660156 -24.320312 6.007812 -25.359375 7.75 -26.109375 C 9.5 -26.859375 11.460938 -27.234375 13.640625 -27.234375 C 16.929688 -27.234375 19.546875 -26.40625 21.484375 -24.75 C 23.421875 -23.09375 24.390625 -20.765625 24.390625 -17.765625 L 24.390625 -6.171875 C 24.410156 -3.640625 24.765625 -1.722656 25.453125 -0.421875 L 25.453125 0 Z M 12.328125 -4.96875 C 13.378906 -4.96875 14.347656 -5.203125 15.234375 -5.671875 C 16.128906 -6.140625 16.789062 -6.769531 17.21875 -7.5625 L 17.21875 -12.15625 L 14.5625 -12.15625 C 10.976562 -12.15625 9.070312 -10.921875 8.84375 -8.453125 L 8.828125 -8.03125 C 8.828125 -7.144531 9.140625 -6.410156 9.765625 -5.828125 C 10.390625 -5.253906 11.242188 -4.96875 12.328125 -4.96875 Z M 12.328125 -4.96875 "/></g></g></g><g fill="#000000" fill-opacity="1"><g transform="translate(145.295799, 195.751041)"><g><path d="M 11.296875 -33.3125 L 11.296875 -26.734375 L 15.859375 -26.734375 L 15.859375 -21.5 L 11.296875 -21.5 L 11.296875 -8.15625 C 11.296875 -7.164062 11.484375 -6.457031 11.859375 -6.03125 C 12.242188 -5.601562 12.96875 -5.390625 14.03125 -5.390625 C 14.820312 -5.390625 15.523438 -5.445312 16.140625 -5.5625 L 16.140625 -0.140625 C 14.734375 0.285156 13.289062 0.5 11.8125 0.5 C 6.800781 0.5 4.25 -2.03125 4.15625 -7.09375 L 4.15625 -21.5 L 0.25 -21.5 L 0.25 -26.734375 L 4.15625 -26.734375 L 4.15625 -33.3125 Z M 11.296875 -33.3125 "/></g></g></g><g fill="#000000" fill-opacity="1"><g transform="translate(162.393591, 195.751041)"><g><path d="M 15.046875 0.5 C 11.128906 0.5 7.9375 -0.703125 5.46875 -3.109375 C 3.007812 -5.515625 1.78125 -8.71875 1.78125 -12.71875 L 1.78125 -13.421875 C 1.78125 -16.109375 2.296875 -18.507812 3.328125 -20.625 C 4.367188 -22.738281 5.835938 -24.367188 7.734375 -25.515625 C 9.640625 -26.660156 11.816406 -27.234375 14.265625 -27.234375 C 17.921875 -27.234375 20.796875 -26.078125 22.890625 -23.765625 C 24.992188 -21.460938 26.046875 -18.195312 26.046875 -13.96875 L 26.046875 -11.046875 L 9.015625 -11.046875 C 9.242188 -9.296875 9.9375 -7.894531 11.09375 -6.84375 C 12.257812 -5.789062 13.734375 -5.265625 15.515625 -5.265625 C 18.265625 -5.265625 20.414062 -6.257812 21.96875 -8.25 L 25.484375 -4.328125 C 24.410156 -2.804688 22.957031 -1.617188 21.125 -0.765625 C 19.300781 0.078125 17.273438 0.5 15.046875 0.5 Z M 14.234375 -21.453125 C 12.816406 -21.453125 11.664062 -20.972656 10.78125 -20.015625 C 9.90625 -19.054688 9.34375 -17.691406 9.09375 -15.921875 L 19.03125 -15.921875 L 19.03125 -16.484375 C 19 -18.066406 18.566406 -19.289062 17.734375 -20.15625 C 16.910156 -21.019531 15.742188 -21.453125 14.234375 -21.453125 Z M 14.234375 -21.453125 "/></g></g></g><g fill="#000000" fill-opacity="1"><g transform="translate(189.745117, 195.751041)"><g><path d="M 9.4375 -26.734375 L 9.65625 -23.75 C 11.550781 -26.070312 14.113281 -27.234375 17.34375 -27.234375 C 20.789062 -27.234375 23.15625 -25.875 24.4375 -23.15625 C 26.3125 -25.875 28.988281 -27.234375 32.46875 -27.234375 C 35.363281 -27.234375 37.519531 -26.390625 38.9375 -24.703125 C 40.363281 -23.015625 41.078125 -20.472656 41.078125 -17.078125 L 41.078125 0 L 33.90625 0 L 33.90625 -17.046875 C 33.90625 -18.566406 33.609375 -19.675781 33.015625 -20.375 C 32.421875 -21.070312 31.375 -21.421875 29.875 -21.421875 C 27.726562 -21.421875 26.242188 -20.398438 25.421875 -18.359375 L 25.453125 0 L 18.3125 0 L 18.3125 -17.03125 C 18.3125 -18.570312 18.003906 -19.6875 17.390625 -20.375 C 16.785156 -21.070312 15.75 -21.421875 14.28125 -21.421875 C 12.257812 -21.421875 10.796875 -20.582031 9.890625 -18.90625 L 9.890625 0 L 2.75 0 L 2.75 -26.734375 Z M 9.4375 -26.734375 "/></g></g></g><g fill="#000000" fill-opacity="1"><g transform="translate(233.552033, 195.751041)"><g><path d="M 18.234375 0 C 17.910156 -0.644531 17.671875 -1.441406 17.515625 -2.390625 C 15.785156 -0.460938 13.539062 0.5 10.78125 0.5 C 8.15625 0.5 5.984375 -0.253906 4.265625 -1.765625 C 2.546875 -3.285156 1.6875 -5.203125 1.6875 -7.515625 C 1.6875 -10.347656 2.734375 -12.519531 4.828125 -14.03125 C 6.929688 -15.550781 9.96875 -16.316406 13.9375 -16.328125 L 17.21875 -16.328125 L 17.21875 -17.859375 C 17.21875 -19.097656 16.898438 -20.085938 16.265625 -20.828125 C 15.640625 -21.566406 14.640625 -21.9375 13.265625 -21.9375 C 12.066406 -21.9375 11.125 -21.648438 10.4375 -21.078125 C 9.757812 -20.503906 9.421875 -19.710938 9.421875 -18.703125 L 2.28125 -18.703125 C 2.28125 -20.253906 2.753906 -21.6875 3.703125 -23 C 4.660156 -24.320312 6.007812 -25.359375 7.75 -26.109375 C 9.5 -26.859375 11.460938 -27.234375 13.640625 -27.234375 C 16.929688 -27.234375 19.546875 -26.40625 21.484375 -24.75 C 23.421875 -23.09375 24.390625 -20.765625 24.390625 -17.765625 L 24.390625 -6.171875 C 24.410156 -3.640625 24.765625 -1.722656 25.453125 -0.421875 L 25.453125 0 Z M 12.328125 -4.96875 C 13.378906 -4.96875 14.347656 -5.203125 15.234375 -5.671875 C 16.128906 -6.140625 16.789062 -6.769531 17.21875 -7.5625 L 17.21875 -12.15625 L 14.5625 -12.15625 C 10.976562 -12.15625 9.070312 -10.921875 8.84375 -8.453125 L 8.828125 -8.03125 C 8.828125 -7.144531 9.140625 -6.410156 9.765625 -5.828125 C 10.390625 -5.253906 11.242188 -4.96875 12.328125 -4.96875 Z M 15.046875 -37.953125 L 22.828125 -37.953125 L 15.984375 -30.296875 L 10.1875 -30.296875 Z M 15.046875 -37.953125 "/></g></g></g><g fill="#000000" fill-opacity="1"><g transform="translate(260.68119, 195.751041)"><g><path d="M 11.296875 -33.3125 L 11.296875 -26.734375 L 15.859375 -26.734375 L 15.859375 -21.5 L 11.296875 -21.5 L 11.296875 -8.15625 C 11.296875 -7.164062 11.484375 -6.457031 11.859375 -6.03125 C 12.242188 -5.601562 12.96875 -5.390625 14.03125 -5.390625 C 14.820312 -5.390625 15.523438 -5.445312 16.140625 -5.5625 L 16.140625 -0.140625 C 14.734375 0.285156 13.289062 0.5 11.8125 0.5 C 6.800781 0.5 4.25 -2.03125 4.15625 -7.09375 L 4.15625 -21.5 L 0.25 -21.5 L 0.25 -26.734375 L 4.15625 -26.734375 L 4.15625 -33.3125 Z M 11.296875 -33.3125 "/></g></g></g><g fill="#000000" fill-opacity="1"><g transform="translate(277.778982, 195.751041)"><g><path d="M 10.28125 0 L 3.109375 0 L 3.109375 -26.734375 L 10.28125 -26.734375 Z M 2.6875 -33.65625 C 2.6875 -34.726562 3.046875 -35.609375 3.765625 -36.296875 C 4.484375 -36.992188 5.460938 -37.34375 6.703125 -37.34375 C 7.921875 -37.34375 8.890625 -36.992188 9.609375 -36.296875 C 10.335938 -35.609375 10.703125 -34.726562 10.703125 -33.65625 C 10.703125 -32.570312 10.332031 -31.679688 9.59375 -30.984375 C 8.863281 -30.296875 7.894531 -29.953125 6.6875 -29.953125 C 5.488281 -29.953125 4.519531 -30.296875 3.78125 -30.984375 C 3.050781 -31.679688 2.6875 -32.570312 2.6875 -33.65625 Z M 2.6875 -33.65625 "/></g></g></g><g fill="#000000" fill-opacity="1"><g transform="translate(291.195325, 195.751041)"><g><path d="M 13.859375 -5.265625 C 15.179688 -5.265625 16.253906 -5.625 17.078125 -6.34375 C 17.898438 -7.070312 18.328125 -8.035156 18.359375 -9.234375 L 25.0625 -9.234375 C 25.039062 -7.429688 24.539062 -5.773438 23.5625 -4.265625 C 22.59375 -2.753906 21.265625 -1.582031 19.578125 -0.75 C 17.890625 0.0820312 16.023438 0.5 13.984375 0.5 C 10.160156 0.5 7.144531 -0.710938 4.9375 -3.140625 C 2.726562 -5.578125 1.625 -8.9375 1.625 -13.21875 L 1.625 -13.6875 C 1.625 -17.8125 2.71875 -21.097656 4.90625 -23.546875 C 7.101562 -26.003906 10.113281 -27.234375 13.9375 -27.234375 C 17.28125 -27.234375 19.960938 -26.28125 21.984375 -24.375 C 24.003906 -22.476562 25.03125 -19.945312 25.0625 -16.78125 L 18.359375 -16.78125 C 18.328125 -18.164062 17.898438 -19.289062 17.078125 -20.15625 C 16.253906 -21.019531 15.164062 -21.453125 13.8125 -21.453125 C 12.144531 -21.453125 10.882812 -20.84375 10.03125 -19.625 C 9.1875 -18.414062 8.765625 -16.453125 8.765625 -13.734375 L 8.765625 -13 C 8.765625 -10.25 9.1875 -8.269531 10.03125 -7.0625 C 10.875 -5.863281 12.148438 -5.265625 13.859375 -5.265625 Z M 13.859375 -5.265625 "/></g></g></g><g fill="#000000" fill-opacity="1"><g transform="translate(317.583247, 195.751041)"><g><path d="M 18.234375 0 C 17.910156 -0.644531 17.671875 -1.441406 17.515625 -2.390625 C 15.785156 -0.460938 13.539062 0.5 10.78125 0.5 C 8.15625 0.5 5.984375 -0.253906 4.265625 -1.765625 C 2.546875 -3.285156 1.6875 -5.203125 1.6875 -7.515625 C 1.6875 -10.347656 2.734375 -12.519531 4.828125 -14.03125 C 6.929688 -15.550781 9.96875 -16.316406 13.9375 -16.328125 L 17.21875 -16.328125 L 17.21875 -17.859375 C 17.21875 -19.097656 16.898438 -20.085938 16.265625 -20.828125 C 15.640625 -21.566406 14.640625 -21.9375 13.265625 -21.9375 C 12.066406 -21.9375 11.125 -21.648438 10.4375 -21.078125 C 9.757812 -20.503906 9.421875 -19.710938 9.421875 -18.703125 L 2.28125 -18.703125 C 2.28125 -20.253906 2.753906 -21.6875 3.703125 -23 C 4.660156 -24.320312 6.007812 -25.359375 7.75 -26.109375 C 9.5 -26.859375 11.460938 -27.234375 13.640625 -27.234375 C 16.929688 -27.234375 19.546875 -26.40625 21.484375 -24.75 C 23.421875 -23.09375 24.390625 -20.765625 24.390625 -17.765625 L 24.390625 -6.171875 C 24.410156 -3.640625 24.765625 -1.722656 25.453125 -0.421875 L 25.453125 0 Z M 12.328125 -4.96875 C 13.378906 -4.96875 14.347656 -5.203125 15.234375 -5.671875 C 16.128906 -6.140625 16.789062 -6.769531 17.21875 -7.5625 L 17.21875 -12.15625 L 14.5625 -12.15625 C 10.976562 -12.15625 9.070312 -10.921875 8.84375 -8.453125 L 8.828125 -8.03125 C 8.828125 -7.144531 9.140625 -6.410156 9.765625 -5.828125 C 10.390625 -5.253906 11.242188 -4.96875 12.328125 -4.96875 Z M 12.328125 -4.96875 "/></g></g></g><g fill="#000000" fill-opacity="1"><g transform="translate(344.719754, 195.751041)"><g/></g></g><g fill="#000000" fill-opacity="1"><g transform="translate(82.701217, 224.676168)"><g><path d="M 5.890625 -12.125 C 6.316406 -12.78125 6.898438 -13.304688 7.640625 -13.703125 C 8.378906 -14.109375 9.25 -14.3125 10.25 -14.3125 C 11.40625 -14.3125 12.457031 -14.015625 13.40625 -13.421875 C 14.351562 -12.835938 15.097656 -12 15.640625 -10.90625 C 16.191406 -9.8125 16.46875 -8.535156 16.46875 -7.078125 C 16.46875 -5.628906 16.191406 -4.351562 15.640625 -3.25 C 15.097656 -2.144531 14.351562 -1.289062 13.40625 -0.6875 C 12.457031 -0.09375 11.40625 0.203125 10.25 0.203125 C 9.269531 0.203125 8.40625 0 7.65625 -0.40625 C 6.90625 -0.8125 6.316406 -1.332031 5.890625 -1.96875 L 5.890625 6.734375 L 1.5625 6.734375 L 1.5625 -14.109375 L 5.890625 -14.109375 Z M 12.0625 -7.078125 C 12.0625 -8.160156 11.757812 -9.007812 11.15625 -9.625 C 10.5625 -10.238281 9.828125 -10.546875 8.953125 -10.546875 C 8.097656 -10.546875 7.367188 -10.234375 6.765625 -9.609375 C 6.171875 -8.984375 5.875 -8.132812 5.875 -7.0625 C 5.875 -5.976562 6.171875 -5.125 6.765625 -4.5 C 7.367188 -3.875 8.097656 -3.5625 8.953125 -3.5625 C 9.816406 -3.5625 10.550781 -3.878906 11.15625 -4.515625 C 11.757812 -5.148438 12.0625 -6.003906 12.0625 -7.078125 Z M 12.0625 -7.078125 "/></g></g></g><g fill="#000000" fill-opacity="1"><g transform="translate(99.872527, 224.676168)"><g><path d="M 0.703125 -7.078125 C 0.703125 -8.535156 0.976562 -9.8125 1.53125 -10.90625 C 2.082031 -12 2.828125 -12.835938 3.765625 -13.421875 C 4.710938 -14.015625 5.769531 -14.3125 6.9375 -14.3125 C 7.925781 -14.3125 8.796875 -14.109375 9.546875 -13.703125 C 10.296875 -13.304688 10.875 -12.78125 11.28125 -12.125 L 11.28125 -14.109375 L 15.609375 -14.109375 L 15.609375 0 L 11.28125 0 L 11.28125 -2 C 10.863281 -1.34375 10.28125 -0.8125 9.53125 -0.40625 C 8.78125 0 7.90625 0.203125 6.90625 0.203125 C 5.757812 0.203125 4.710938 -0.09375 3.765625 -0.6875 C 2.828125 -1.289062 2.082031 -2.144531 1.53125 -3.25 C 0.976562 -4.351562 0.703125 -5.628906 0.703125 -7.078125 Z M 11.28125 -7.0625 C 11.28125 -8.132812 10.976562 -8.984375 10.375 -9.609375 C 9.78125 -10.234375 9.054688 -10.546875 8.203125 -10.546875 C 7.335938 -10.546875 6.601562 -10.238281 6 -9.625 C 5.40625 -9.007812 5.109375 -8.160156 5.109375 -7.078125 C 5.109375 -6.003906 5.40625 -5.148438 6 -4.515625 C 6.601562 -3.878906 7.335938 -3.5625 8.203125 -3.5625 C 9.054688 -3.5625 9.78125 -3.875 10.375 -4.5 C 10.976562 -5.125 11.28125 -5.976562 11.28125 -7.0625 Z M 11.28125 -7.0625 "/></g></g></g><g fill="#000000" fill-opacity="1"><g transform="translate(117.043836, 224.676168)"><g><path d="M 5.890625 -11.765625 C 6.398438 -12.535156 7.035156 -13.144531 7.796875 -13.59375 C 8.554688 -14.039062 9.398438 -14.265625 10.328125 -14.265625 L 10.328125 -9.6875 L 9.125 -9.6875 C 8.050781 -9.6875 7.242188 -9.453125 6.703125 -8.984375 C 6.160156 -8.523438 5.890625 -7.710938 5.890625 -6.546875 L 5.890625 0 L 1.5625 0 L 1.5625 -14.109375 L 5.890625 -14.109375 Z M 5.890625 -11.765625 "/></g></g></g><g fill="#000000" fill-opacity="1"><g transform="translate(127.867577, 224.676168)"><g><path d="M 0.703125 -7.078125 C 0.703125 -8.535156 0.976562 -9.8125 1.53125 -10.90625 C 2.082031 -12 2.828125 -12.835938 3.765625 -13.421875 C 4.710938 -14.015625 5.769531 -14.3125 6.9375 -14.3125 C 7.925781 -14.3125 8.796875 -14.109375 9.546875 -13.703125 C 10.296875 -13.304688 10.875 -12.78125 11.28125 -12.125 L 11.28125 -14.109375 L 15.609375 -14.109375 L 15.609375 0 L 11.28125 0 L 11.28125 -2 C 10.863281 -1.34375 10.28125 -0.8125 9.53125 -0.40625 C 8.78125 0 7.90625 0.203125 6.90625 0.203125 C 5.757812 0.203125 4.710938 -0.09375 3.765625 -0.6875 C 2.828125 -1.289062 2.082031 -2.144531 1.53125 -3.25 C 0.976562 -4.351562 0.703125 -5.628906 0.703125 -7.078125 Z M 11.28125 -7.0625 C 11.28125 -8.132812 10.976562 -8.984375 10.375 -9.609375 C 9.78125 -10.234375 9.054688 -10.546875 8.203125 -10.546875 C 7.335938 -10.546875 6.601562 -10.238281 6 -9.625 C 5.40625 -9.007812 5.109375 -8.160156 5.109375 -7.078125 C 5.109375 -6.003906 5.40625 -5.148438 6 -4.515625 C 6.601562 -3.878906 7.335938 -3.5625 8.203125 -3.5625 C 9.054688 -3.5625 9.78125 -3.875 10.375 -4.5 C 10.976562 -5.125 11.28125 -5.976562 11.28125 -7.0625 Z M 11.28125 -7.0625 "/></g></g></g><g fill="#000000" fill-opacity="1"><g transform="translate(145.044963, 224.676168)"><g/></g></g><g clip-path="url(#ecf687986b)"><path fill="#ff3131" d="M 73.539062 151.25 C 73.5 151.1875 73.449219 151.136719 73.410156 151.070312 C 72.566406 149.996094 71.148438 149.410156 69.804688 149.5625 C 68.320312 149.726562 67.222656 150.457031 66.632812 150.878906 C 66.632812 150.878906 63.011719 153.449219 57.09375 155.917969 C 56.082031 156.339844 55.914062 156.171875 55.878906 156.121094 C 55.839844 156.070312 55.828125 155.996094 55.863281 155.890625 C 56.59375 153.371094 57.386719 150.851562 57.859375 148.28125 C 58.433594 145.429688 58.792969 142.539062 58.933594 139.636719 C 59.011719 138.167969 58.996094 136.605469 58.21875 135.367188 C 57.003906 133.421875 53.894531 133.0625 52.257812 134.675781 C 51.234375 135.6875 50.863281 137.167969 50.558594 138.578125 C 50.160156 140.367188 49.789062 142.167969 49.457031 143.972656 C 49.292969 144.882812 49.164062 145.800781 49.046875 146.722656 C 48.894531 147.9375 48.832031 148.730469 48.523438 148.792969 C 48.410156 148.820312 48.203125 148.78125 47.871094 148.207031 C 47.527344 147.617188 47.195312 147.03125 46.835938 146.453125 C 46.183594 145.378906 45.503906 144.332031 44.789062 143.308594 C 43.371094 141.25 41.808594 139.28125 40.121094 137.414062 C 39.125 136.300781 38.023438 135.199219 36.628906 134.6875 C 35.503906 134.277344 34.148438 134.355469 33.175781 135.085938 C 32.140625 135.839844 31.246094 136.492188 31.347656 137.9375 C 31.414062 138.832031 31.820312 139.675781 32.230469 140.480469 C 32.984375 141.925781 33.816406 143.347656 34.710938 144.714844 C 34.726562 144.742188 35.289062 145.558594 36.386719 147.183594 C 37.191406 148.359375 37.859375 149.34375 37.742188 149.433594 C 37.691406 149.472656 37.5625 149.28125 37.167969 149.089844 C 36.785156 148.910156 36.414062 148.730469 36.03125 148.578125 C 35.261719 148.269531 34.480469 147.988281 33.6875 147.734375 C 32.117188 147.207031 30.503906 146.785156 28.878906 146.453125 C 27.882812 146.25 26.886719 146.082031 25.886719 145.957031 C 24.6875 145.800781 23.417969 145.699219 22.292969 146.148438 C 21.015625 146.660156 20.042969 147.886719 19.839844 149.253906 C 19.648438 150.625 20.222656 152.066406 21.308594 152.925781 C 22.167969 153.589844 23.253906 153.882812 24.300781 154.164062 C 27.921875 155.164062 31.464844 156.402344 34.917969 157.898438 C 34.609375 157.773438 33.316406 158.4375 32.984375 158.550781 C 32.28125 158.808594 31.589844 159.078125 30.902344 159.359375 C 29.519531 159.921875 28.164062 160.546875 26.847656 161.226562 C 24.378906 162.492188 21.425781 163.949219 19.582031 166.085938 C 18.242188 167.65625 17.972656 169.960938 19.351562 171.609375 C 20.25 172.671875 21.707031 173.234375 23.074219 173.027344 C 24.277344 172.851562 25.339844 172.148438 26.375 171.507812 C 29.007812 169.871094 31.808594 168.5 34.726562 167.425781 C 35.695312 167.070312 36.605469 166.339844 36.949219 166.660156 C 37.308594 166.992188 36.734375 168.144531 36.527344 168.578125 C 33.945312 173.949219 33.535156 180.957031 33.472656 181.636719 C 33.265625 183.644531 33.242188 185.882812 34.546875 187.417969 C 36.207031 189.371094 39.816406 189.054688 41.105469 186.828125 C 41.65625 185.882812 41.796875 184.757812 41.949219 183.667969 C 42.4375 180.242188 42.882812 178.527344 42.882812 178.527344 C 43.601562 174.230469 43.78125 173.476562 44.125 173.449219 C 44.46875 173.414062 44.636719 174.15625 45.851562 176.378906 C 46.15625 176.957031 46.808594 178.132812 47.730469 179.550781 C 49.046875 181.597656 50.507812 183.527344 52.117188 185.355469 C 53.179688 186.558594 54.40625 187.773438 55.992188 188.070312 C 58.308594 188.476562 60.710938 186.304688 60.53125 183.964844 C 60.457031 183.042969 60.226562 182.378906 59.546875 181.199219 C 58.167969 178.808594 54.46875 173.925781 54.34375 173.335938 C 54.34375 173.335938 54.34375 173.324219 54.34375 173.308594 C 54.445312 173.082031 57.128906 174.28125 60.265625 175.253906 C 60.917969 175.457031 63.371094 176.097656 66.570312 176.609375 C 67.769531 176.800781 69.050781 176.941406 70.199219 176.519531 C 72.464844 175.675781 73.386719 172.429688 71.875 170.535156 C 71.097656 169.550781 70.148438 169.027344 68.5 168.476562 C 61.632812 166.210938 58.179688 165.90625 58.117188 165.0625 C 58.0625 164.421875 60.035156 164.167969 64.457031 162.109375 C 64.714844 161.992188 67.449219 160.585938 70.75 158.410156 C 72.105469 157.515625 73.511719 156.46875 74.0625 154.933594 C 74.472656 153.730469 74.28125 152.3125 73.539062 151.25 Z M 73.539062 151.25 " fill-opacity="1" fill-rule="nonzero"/></g><g clip-path="url(#09d8a3cf9a)"><path fill="#ff3131" d="M 37.550781 189.027344 C 36.257812 189.027344 35.070312 188.515625 34.304688 187.621094 C 32.921875 185.984375 32.949219 183.65625 33.152344 181.597656 C 33.152344 181.558594 33.164062 181.496094 33.164062 181.394531 C 33.574219 176.304688 34.660156 171.699219 36.234375 168.425781 L 36.273438 168.347656 C 36.785156 167.261719 36.769531 166.96875 36.734375 166.878906 C 36.59375 166.851562 36.144531 167.082031 35.835938 167.25 C 35.53125 167.402344 35.183594 167.582031 34.839844 167.707031 C 31.949219 168.769531 29.160156 170.140625 26.554688 171.761719 L 26.324219 171.902344 C 25.339844 172.515625 24.316406 173.15625 23.125 173.324219 C 21.65625 173.539062 20.082031 172.941406 19.109375 171.789062 C 17.703125 170.101562 17.792969 167.65625 19.339844 165.855469 C 21.144531 163.769531 23.917969 162.335938 26.375 161.085938 L 26.695312 160.917969 C 28.035156 160.226562 29.40625 159.601562 30.773438 159.039062 C 31.515625 158.742188 32.191406 158.476562 32.871094 158.234375 C 32.949219 158.207031 33.101562 158.144531 33.265625 158.066406 C 33.496094 157.964844 33.714844 157.875 33.894531 157.796875 C 30.773438 156.492188 27.523438 155.367188 24.210938 154.460938 C 23.191406 154.179688 22.027344 153.871094 21.105469 153.167969 C 19.929688 152.246094 19.300781 150.6875 19.519531 149.203125 C 19.738281 147.71875 20.785156 146.402344 22.167969 145.839844 C 23.382812 145.355469 24.738281 145.480469 25.914062 145.621094 C 26.910156 145.75 27.933594 145.917969 28.933594 146.121094 C 30.621094 146.46875 32.242188 146.902344 33.777344 147.414062 C 34.570312 147.667969 35.363281 147.949219 36.132812 148.269531 C 36.414062 148.386719 36.695312 148.511719 36.976562 148.640625 C 36.707031 148.21875 36.363281 147.71875 36.105469 147.347656 C 35.519531 146.480469 35.082031 145.839844 34.800781 145.429688 C 34.519531 145.007812 34.445312 144.90625 34.417969 144.867188 C 33.523438 143.5 32.679688 142.066406 31.925781 140.609375 C 31.476562 139.726562 31.066406 138.871094 31.003906 137.9375 C 30.886719 136.3125 31.898438 135.582031 32.960938 134.804688 C 33.957031 134.0625 35.390625 133.882812 36.707031 134.367188 C 38.214844 134.917969 39.367188 136.109375 40.328125 137.183594 C 42.015625 139.0625 43.601562 141.058594 45.019531 143.117188 C 45.710938 144.101562 46.386719 145.136719 47.078125 146.273438 C 47.335938 146.683594 47.589844 147.117188 47.832031 147.542969 C 47.921875 147.707031 48.023438 147.875 48.113281 148.039062 C 48.253906 148.28125 48.359375 148.398438 48.410156 148.4375 C 48.511719 148.21875 48.585938 147.59375 48.652344 147.03125 L 48.691406 146.671875 C 48.832031 145.546875 48.957031 144.6875 49.097656 143.910156 C 49.417969 142.195312 49.789062 140.378906 50.199219 138.5 C 50.53125 136.964844 50.929688 135.496094 51.988281 134.445312 C 52.832031 133.613281 54.101562 133.21875 55.402344 133.371094 C 56.707031 133.523438 57.820312 134.191406 58.449219 135.199219 C 59.292969 136.554688 59.292969 138.207031 59.214844 139.664062 C 59.074219 142.578125 58.714844 145.507812 58.140625 148.359375 C 57.746094 150.535156 57.105469 152.695312 56.492188 154.78125 C 56.390625 155.152344 56.273438 155.507812 56.171875 155.878906 C 56.300781 155.855469 56.542969 155.800781 56.9375 155.636719 C 62.757812 153.207031 66.375 150.660156 66.414062 150.636719 C 67.117188 150.125 68.242188 149.433594 69.742188 149.269531 C 71.199219 149.101562 72.71875 149.742188 73.628906 150.890625 L 73.652344 150.929688 C 73.667969 150.957031 73.679688 150.96875 73.691406 150.992188 C 73.71875 151.019531 73.742188 151.058594 73.769531 151.109375 C 74.5625 152.246094 74.777344 153.757812 74.332031 155.074219 C 73.742188 156.734375 72.246094 157.824219 70.890625 158.71875 C 67.554688 160.917969 64.828125 162.3125 64.546875 162.441406 C 62.644531 163.324219 61.210938 163.871094 60.160156 164.269531 C 59.304688 164.601562 58.5 164.90625 58.398438 165.074219 C 58.5 165.355469 60.097656 165.777344 61.65625 166.1875 C 63.347656 166.632812 65.648438 167.25 68.5625 168.207031 C 70.378906 168.808594 71.300781 169.382812 72.09375 170.367188 C 72.859375 171.328125 73.105469 172.695312 72.734375 174.027344 C 72.363281 175.371094 71.441406 176.417969 70.277344 176.851562 C 69.023438 177.3125 67.667969 177.148438 66.480469 176.957031 C 63.152344 176.417969 60.722656 175.777344 60.125 175.585938 C 58.714844 175.152344 57.410156 174.664062 56.351562 174.28125 C 55.800781 174.078125 55.25 173.875 54.855469 173.746094 C 55.238281 174.359375 55.980469 175.433594 56.671875 176.40625 C 57.796875 178.015625 59.074219 179.84375 59.777344 181.058594 C 60.46875 182.261719 60.722656 182.964844 60.800781 183.949219 C 60.890625 185.152344 60.351562 186.394531 59.367188 187.300781 C 58.371094 188.195312 57.078125 188.617188 55.890625 188.402344 C 54.242188 188.09375 52.960938 186.867188 51.835938 185.585938 C 50.226562 183.757812 48.742188 181.789062 47.425781 179.742188 C 46.492188 178.3125 45.839844 177.121094 45.53125 176.546875 C 45.097656 175.753906 44.789062 175.140625 44.570312 174.691406 C 44.378906 174.308594 44.214844 173.976562 44.113281 173.835938 C 43.894531 174.257812 43.574219 176.097656 43.152344 178.59375 L 43.152344 178.617188 C 43.152344 178.628906 42.703125 180.355469 42.230469 183.71875 L 42.21875 183.847656 C 42.066406 184.921875 41.914062 186.035156 41.347656 186.996094 C 40.695312 188.132812 39.417969 188.886719 37.960938 189.015625 C 37.84375 189.027344 37.691406 189.027344 37.550781 189.027344 Z M 36.734375 166.265625 C 36.898438 166.265625 37.039062 166.316406 37.167969 166.429688 C 37.640625 166.863281 37.257812 167.796875 36.847656 168.640625 L 36.808594 168.71875 C 35.261719 171.929688 34.199219 176.457031 33.804688 181.457031 C 33.792969 181.546875 33.792969 181.621094 33.792969 181.660156 C 33.597656 183.59375 33.5625 185.753906 34.789062 187.199219 C 35.503906 188.042969 36.679688 188.476562 37.933594 188.363281 C 39.1875 188.246094 40.273438 187.609375 40.824219 186.660156 C 41.324219 185.804688 41.464844 184.757812 41.605469 183.746094 L 41.617188 183.617188 C 42.078125 180.332031 42.511719 178.644531 42.550781 178.453125 C 42.898438 176.40625 43.128906 175.0625 43.320312 174.308594 C 43.472656 173.679688 43.636719 173.15625 44.085938 173.132812 C 44.519531 173.082031 44.710938 173.464844 45.171875 174.398438 C 45.390625 174.84375 45.699219 175.445312 46.121094 176.226562 C 46.425781 176.800781 47.066406 177.964844 47.988281 179.371094 C 49.292969 181.394531 50.761719 183.335938 52.347656 185.140625 C 53.394531 186.328125 54.585938 187.480469 56.042969 187.75 C 57.027344 187.929688 58.128906 187.570312 58.984375 186.800781 C 59.828125 186.035156 60.289062 184.988281 60.210938 183.988281 C 60.136719 183.105469 59.917969 182.492188 59.265625 181.367188 C 58.574219 180.179688 57.308594 178.363281 56.195312 176.761719 C 54.714844 174.640625 54.101562 173.730469 54.035156 173.414062 L 54.023438 173.375 L 54.023438 173.246094 L 54.046875 173.183594 C 54.203125 172.835938 54.636719 172.976562 55.070312 173.105469 C 55.457031 173.234375 55.992188 173.425781 56.621094 173.65625 C 57.667969 174.039062 58.960938 174.511719 60.351562 174.949219 C 61.082031 175.175781 63.578125 175.804688 66.621094 176.289062 C 67.71875 176.46875 68.984375 176.621094 70.085938 176.214844 C 71.058594 175.855469 71.824219 174.949219 72.144531 173.808594 C 72.453125 172.683594 72.257812 171.53125 71.621094 170.726562 C 70.917969 169.84375 70.074219 169.332031 68.398438 168.769531 C 65.496094 167.8125 63.207031 167.210938 61.53125 166.761719 C 58.933594 166.070312 57.847656 165.789062 57.796875 165.074219 C 57.746094 164.472656 58.398438 164.21875 59.96875 163.628906 C 61.003906 163.234375 62.4375 162.695312 64.316406 161.8125 C 64.574219 161.699219 67.324219 160.277344 70.570312 158.144531 C 71.835938 157.3125 73.230469 156.289062 73.757812 154.816406 C 74.140625 153.707031 73.949219 152.402344 73.269531 151.429688 L 73.257812 151.417969 C 73.246094 151.390625 73.230469 151.378906 73.21875 151.351562 C 73.191406 151.328125 73.167969 151.289062 73.140625 151.25 C 72.363281 150.277344 71.070312 149.726562 69.828125 149.867188 C 68.488281 150.023438 67.464844 150.660156 66.8125 151.121094 C 66.773438 151.148438 63.089844 153.742188 57.207031 156.199219 C 56.3125 156.570312 55.839844 156.59375 55.609375 156.300781 C 55.507812 156.160156 55.480469 155.96875 55.542969 155.777344 C 55.660156 155.378906 55.773438 154.972656 55.890625 154.574219 C 56.503906 152.503906 57.128906 150.355469 57.527344 148.207031 C 58.101562 145.378906 58.460938 142.488281 58.601562 139.597656 C 58.679688 138.242188 58.679688 136.710938 57.9375 135.519531 C 57.410156 134.6875 56.453125 134.113281 55.351562 133.984375 C 54.253906 133.855469 53.167969 134.191406 52.460938 134.878906 C 51.527344 135.800781 51.160156 137.183594 50.851562 138.628906 C 50.441406 140.496094 50.070312 142.3125 49.75 144.011719 C 49.609375 144.792969 49.484375 145.621094 49.34375 146.75 L 49.304688 147.105469 C 49.152344 148.320312 49.074219 148.984375 48.574219 149.101562 C 48.128906 149.203125 47.796875 148.730469 47.578125 148.359375 C 47.488281 148.195312 47.386719 148.027344 47.296875 147.859375 C 47.054688 147.453125 46.808594 147.015625 46.554688 146.609375 C 45.863281 145.480469 45.199219 144.460938 44.519531 143.472656 C 43.113281 141.441406 41.554688 139.457031 39.878906 137.605469 C 38.972656 136.59375 37.882812 135.46875 36.515625 134.96875 C 35.402344 134.5625 34.1875 134.703125 33.371094 135.328125 C 32.371094 136.058594 31.578125 136.632812 31.667969 137.898438 C 31.730469 138.703125 32.089844 139.472656 32.511719 140.316406 C 33.265625 141.746094 34.085938 143.167969 34.980469 144.523438 L 34.992188 144.535156 C 35.03125 144.585938 35.160156 144.792969 35.351562 145.058594 C 35.632812 145.46875 36.066406 146.109375 36.65625 146.976562 C 37.050781 147.554688 37.421875 148.105469 37.691406 148.527344 C 38.011719 149.023438 38.253906 149.433594 37.949219 149.664062 C 37.730469 149.832031 37.511719 149.664062 37.421875 149.601562 C 37.332031 149.535156 37.230469 149.445312 37.039062 149.355469 L 36.859375 149.269531 C 36.539062 149.113281 36.234375 148.972656 35.925781 148.84375 C 35.171875 148.539062 34.390625 148.257812 33.613281 148.015625 C 32.101562 147.515625 30.492188 147.082031 28.84375 146.75 C 27.855469 146.542969 26.859375 146.378906 25.875 146.25 C 24.773438 146.109375 23.507812 145.992188 22.433594 146.414062 C 21.257812 146.890625 20.363281 148.015625 20.171875 149.269531 C 19.992188 150.535156 20.53125 151.851562 21.527344 152.644531 C 22.332031 153.269531 23.382812 153.550781 24.40625 153.820312 C 28.0625 154.832031 31.644531 156.085938 35.058594 157.566406 C 35.160156 157.65625 35.210938 157.796875 35.171875 157.925781 C 35.121094 158.078125 34.96875 158.167969 34.800781 158.15625 L 34.828125 158.167969 C 34.636719 158.144531 33.84375 158.5 33.535156 158.628906 C 33.34375 158.71875 33.191406 158.78125 33.089844 158.820312 C 32.421875 159.0625 31.746094 159.320312 31.015625 159.625 C 29.671875 160.175781 28.316406 160.804688 26.988281 161.480469 L 26.65625 161.648438 C 24.25 162.875 21.539062 164.269531 19.8125 166.265625 C 18.46875 167.835938 18.382812 169.933594 19.582031 171.378906 C 20.414062 172.363281 21.757812 172.875 23.011719 172.683594 C 24.058594 172.53125 25.03125 171.929688 25.964844 171.339844 L 26.195312 171.199219 C 28.84375 169.550781 31.667969 168.167969 34.597656 167.09375 C 34.917969 166.980469 35.222656 166.8125 35.53125 166.660156 C 35.992188 166.46875 36.398438 166.265625 36.734375 166.265625 Z M 36.734375 166.265625 " fill-opacity="1" fill-rule="nonzero"/></g><g clip-path="url(#220332f86f)"><g clip-path="url(#1de20765e4)"><g clip-path="url(#f1058c94e7)"><g clip-path="url(#21f3fcdf8e)"><g clip-path="url(#fefc9672ff)"><path fill="#000000" d="M 55.128906 129.671875 L 64.621094 142.769531 L 80.207031 147.101562 L 74.933594 154.691406 C 73.285156 157.058594 66.335938 155.078125 59.410156 150.265625 C 52.484375 145.453125 48.207031 139.628906 49.855469 137.257812 Z M 76.960938 125.015625 L 94.679688 149.460938 L 90.378906 148.261719 L 85.710938 154.980469 L 85.785156 155.078125 C 86.152344 155.660156 86.160156 156.425781 85.742188 157.027344 C 85.464844 157.425781 85.050781 157.675781 84.605469 157.757812 L 84.570312 157.757812 L 82.078125 163.070312 L 78.460938 160.554688 L 82.570312 156.367188 L 82.558594 156.335938 C 82.480469 155.890625 82.570312 155.414062 82.847656 155.015625 C 83.265625 154.414062 83.988281 154.152344 84.660156 154.292969 L 84.777344 154.332031 L 89.222656 147.941406 L 65.59375 141.367188 L 47.875 116.925781 Z M 76.960938 125.015625 " fill-opacity="1" fill-rule="evenodd"/></g></g></g></g></g><g fill="#000000" fill-opacity="1"><g transform="translate(122.419348, 258.736461)"><g><path d="M 7.125 -22.609375 L 7.125 0 L 1.890625 0 L 1.890625 -22.609375 Z M 7.125 -22.609375 "/></g></g></g><g fill="#000000" fill-opacity="1"><g transform="translate(131.435289, 258.736461)"><g><path d="M 0.859375 -8.5625 C 0.859375 -10.3125 1.1875 -11.847656 1.84375 -13.171875 C 2.507812 -14.492188 3.410156 -15.507812 4.546875 -16.21875 C 5.691406 -16.9375 6.96875 -17.296875 8.375 -17.296875 C 9.570312 -17.296875 10.625 -17.050781 11.53125 -16.5625 C 12.4375 -16.070312 13.132812 -15.429688 13.625 -14.640625 L 13.625 -17.046875 L 18.859375 -17.046875 L 18.859375 0 L 13.625 0 L 13.625 -2.421875 C 13.113281 -1.617188 12.40625 -0.972656 11.5 -0.484375 C 10.59375 0.00390625 9.539062 0.25 8.34375 0.25 C 6.957031 0.25 5.691406 -0.109375 4.546875 -0.828125 C 3.410156 -1.554688 2.507812 -2.585938 1.84375 -3.921875 C 1.1875 -5.253906 0.859375 -6.800781 0.859375 -8.5625 Z M 13.625 -8.53125 C 13.625 -9.832031 13.257812 -10.859375 12.53125 -11.609375 C 11.8125 -12.367188 10.9375 -12.75 9.90625 -12.75 C 8.863281 -12.75 7.976562 -12.375 7.25 -11.625 C 6.53125 -10.882812 6.171875 -9.863281 6.171875 -8.5625 C 6.171875 -7.25 6.53125 -6.210938 7.25 -5.453125 C 7.976562 -4.691406 8.863281 -4.3125 9.90625 -4.3125 C 10.9375 -4.3125 11.8125 -4.6875 12.53125 -5.4375 C 13.257812 -6.195312 13.625 -7.226562 13.625 -8.53125 Z M 13.625 -8.53125 "/></g></g></g></svg>