<svg version="1.2" xmlns="http://www.w3.org/2000/svg" viewBox="0 0 330 150" width="330" height="150"><defs><clipPath clipPathUnits="userSpaceOnUse" id="cp1"><path d="m3 18.06h56.67v55.94h-56.67z"/></clipPath><clipPath clipPathUnits="userSpaceOnUse" id="cp2"><path d="m3 18.06h56.67v56.25h-56.67z"/></clipPath><clipPath clipPathUnits="userSpaceOnUse" id="cp3"><path d="m32 1h48v48h-48z"/></clipPath><clipPath clipPathUnits="userSpaceOnUse" id="cp4"><path d="m38.56-6.25l46.8 32.53-17.55 25.25-46.8-32.53z"/></clipPath><clipPath clipPathUnits="userSpaceOnUse" id="cp5"><path d="m38.56-6.25l46.8 32.53-17.55 25.25-46.8-32.53z"/></clipPath><clipPath clipPathUnits="userSpaceOnUse" id="cp6"><path d="m38.56-6.25l46.8 32.53-17.55 25.25-46.8-32.53z"/></clipPath><clipPath clipPathUnits="userSpaceOnUse" id="cp7"><path d="m38.56-6.25l46.8 32.53-17.55 25.25-46.8-32.53z"/></clipPath></defs><style>.a{fill:#ff3131}</style><path  d="m183 138.8q-2.5 3-7.1 4.6-4.6 1.7-10.2 1.7-5.8 0-10.2-2.6-4.4-2.5-6.8-7.4-2.4-4.9-2.5-11.4v-3.1q0-6.7 2.3-11.7 2.3-4.9 6.5-7.5 4.3-2.6 10.1-2.6 8 0 12.5 3.8 4.5 3.8 5.4 11.1h-9.1q-0.6-3.9-2.7-5.7-2.1-1.8-5.8-1.8-4.8 0-7.2 3.6-2.5 3.6-2.5 10.6v2.9q0 7.1 2.6 10.7 2.7 3.6 7.9 3.6 5.3 0 7.5-2.2v-7.8h-8.5v-6.8h17.8z"/><path fill-rule="evenodd" d="m205.3 145.1q-7.3 0-12-4.5-4.6-4.6-4.6-12.1v-0.9q0-5 2-9 1.9-4 5.5-6.1 3.6-2.2 8.1-2.2 6.9 0 10.9 4.4 3.9 4.3 3.9 12.3v3.6h-21.3q0.4 3.3 2.6 5.3 2.2 2 5.5 2 5.2 0 8.1-3.8l4.4 4.9q-2 2.9-5.4 4.5-3.5 1.6-7.7 1.6zm-1-27.5q-2.6 0-4.3 1.8-1.7 1.8-2.1 5.1h12.4v-0.7q0-3-1.6-4.6-1.5-1.6-4.4-1.6z"/><path  d="m232.4 111l0.3 3.8q3.6-4.5 9.6-4.5 5.3 0 7.9 3.2 2.6 3.1 2.7 9.3v21.6h-8.9v-21.4q0-2.8-1.3-4.1-1.2-1.3-4.1-1.3-3.8 0-5.7 3.2v23.6h-8.9v-33.4z"/><path  d="m270.4 102.7v8.3h5.7v6.5h-5.7v16.7q0 1.9 0.7 2.7 0.7 0.8 2.7 0.8 1.5 0 2.7-0.2v6.8q-2.7 0.8-5.5 0.8-9.4 0-9.5-9.5v-18.1h-4.9v-6.5h4.9v-8.3z"/><path fill-rule="evenodd" d="m296.5 145.1q-7.3 0-12-4.5-4.6-4.6-4.6-12.1v-0.9q0-5 1.9-9 2-4 5.6-6.1 3.5-2.2 8.1-2.2 6.9 0 10.8 4.4 4 4.3 4 12.3v3.6h-21.3q0.4 3.3 2.6 5.3 2.2 2 5.5 2 5.2 0 8.1-3.8l4.4 4.9q-2 2.9-5.5 4.5-3.4 1.6-7.6 1.6zm-1-27.5q-2.7 0-4.3 1.8-1.7 1.8-2.1 5.1h12.4v-0.7q-0.1-3-1.6-4.6-1.6-1.6-4.4-1.6z"/><path  d="m71.7 44.8l9.3 26.1 9.2-26.1h9.7v36h-7.4v-9.9l0.7-17-9.7 26.9h-5.1l-9.7-26.8 0.8 16.9v9.9h-7.4v-36z"/><path fill-rule="evenodd" d="m121.4 80.8q-0.5-1-0.7-2.4-2.6 2.9-6.8 2.9-3.9 0-6.5-2.3-2.5-2.3-2.5-5.8 0-4.2 3.1-6.5 3.1-2.3 9.1-2.3h3.3v-1.5q0-1.9-1-3-0.9-1.1-3-1.1-1.8 0-2.8 0.9-1 0.8-1 2.3h-7.2q0-2.3 1.5-4.2 1.4-2 4-3.2 2.6-1.1 5.9-1.1 4.9 0 7.9 2.5 2.9 2.5 2.9 7v11.6q0 3.8 1 5.7v0.5zm-5.9-5q1.6 0 2.9-0.7 1.4-0.7 2-1.9v-4.6h-2.7q-5.3 0-5.7 3.7v0.4q0 1.3 1 2.2 0.9 0.9 2.5 0.9z"/><path  d="m141.6 47.4v6.6h4.6v5.3h-4.6v13.3q0 1.5 0.6 2.1 0.5 0.7 2.1 0.7 1.2 0 2.1-0.2v5.4q-2.1 0.7-4.3 0.7-7.5 0-7.6-7.6v-14.4h-4v-5.3h4v-6.6z"/><path fill-rule="evenodd" d="m162.4 81.3q-5.8 0-9.5-3.7-3.7-3.6-3.7-9.6v-0.7q0-4 1.5-7.2 1.6-3.1 4.4-4.9 2.9-1.7 6.6-1.7 5.4 0 8.6 3.5 3.1 3.4 3.1 9.8v2.9h-17q0.4 2.6 2.1 4.2 1.7 1.6 4.4 1.6 4.1 0 6.5-3l3.5 3.9q-1.6 2.3-4.4 3.6-2.7 1.3-6.1 1.3zm-0.8-22q-2.1 0-3.4 1.4-1.3 1.5-1.7 4.1h9.9v-0.5q0-2.4-1.3-3.7-1.2-1.3-3.5-1.3z"/><path  d="m184.2 54l0.2 3q2.8-3.5 7.7-3.5 5.2 0 7.1 4.1 2.8-4.1 8-4.1 4.4 0 6.5 2.5 2.1 2.6 2.1 7.7v17.1h-7.1v-17.1q0-2.3-0.9-3.3-0.9-1.1-3.2-1.1-3.2 0-4.4 3.1v18.4h-7.1v-17.1q0-2.3-1-3.3-0.9-1.1-3.1-1.1-3 0-4.4 2.5v19h-7.1v-26.8z"/><path fill-rule="evenodd" d="m236.8 80.8q-0.5-1-0.7-2.4-2.6 2.9-6.8 2.9-3.9 0-6.5-2.3-2.6-2.3-2.6-5.8 0-4.2 3.2-6.5 3.1-2.3 9.1-2.3h3.3v-1.5q0-1.9-1-3-0.9-1.1-3-1.1-1.8 0-2.8 0.9-1 0.8-1 2.3h-7.2q0-2.3 1.5-4.2 1.4-2 4-3.2 2.6-1.1 5.9-1.1 4.9 0 7.8 2.5 2.9 2.5 2.9 7v11.6q0.1 3.8 1.1 5.7v0.5zm-5.9-5q1.6 0 2.9-0.7 1.3-0.7 2-1.9v-4.6h-2.7q-5.3 0-5.7 3.7v0.4q0 1.3 0.9 2.2 1 0.9 2.6 0.9zm2.7-33h7.8l-6.8 7.7h-5.8z"/><path  d="m257 47.4v6.6h4.5v5.3h-4.5v13.3q0 1.5 0.5 2.1 0.6 0.7 2.2 0.7 1.2 0 2.1-0.2v5.4q-2.1 0.7-4.3 0.7-7.5 0-7.7-7.6v-14.4h-3.9v-5.3h3.9v-6.6z"/><path  d="m273.1 80.8h-7.2v-26.8h7.2zm-7.6-33.6q0-1.6 1-2.7 1.1-1 3-1 1.8 0 2.9 1 1.1 1.1 1.1 2.7 0 1.6-1.1 2.6-1.1 1.1-2.9 1.1-1.8 0-2.9-1.1-1.1-1-1.1-2.6z"/><path  d="m290.1 75.5q1.9 0 3.2-1.1 1.2-1.1 1.3-2.9h6.7q-0.1 2.7-1.5 5-1.5 2.3-4 3.5-2.6 1.3-5.6 1.3-5.8 0-9.1-3.7-3.3-3.6-3.3-10.1v-0.4q0-6.2 3.3-9.9 3.3-3.7 9-3.7 5 0 8.1 2.9 3 2.8 3.1 7.6h-6.7q-0.1-2.1-1.3-3.4-1.3-1.3-3.3-1.3-2.5 0-3.8 1.8-1.2 1.8-1.2 5.9v0.8q0 4.1 1.2 5.9 1.3 1.8 3.9 1.8z"/><path fill-rule="evenodd" d="m320.8 80.8q-0.5-1-0.7-2.4-2.6 2.9-6.7 2.9-4 0-6.6-2.3-2.5-2.3-2.5-5.8 0-4.2 3.1-6.5 3.2-2.3 9.1-2.3h3.3v-1.5q0-1.9-1-3-0.9-1.1-3-1.1-1.7 0-2.8 0.9-1 0.8-1 2.3h-7.1q0-2.3 1.4-4.2 1.4-2 4-3.2 2.7-1.1 5.9-1.1 5 0 7.9 2.5 2.9 2.5 2.9 7v11.6q0 3.8 1 5.7v0.5zm-5.9-5q1.6 0 2.9-0.7 1.4-0.7 2-1.9v-4.6h-2.6q-5.4 0-5.8 3.7v0.4q0 1.3 1 2.2 0.9 0.9 2.5 0.9z"/><path fill-rule="evenodd" d="m73.6 97.6q0.6-1 1.7-1.6 1.2-0.6 2.7-0.6 1.7 0 3.1 0.9 1.4 0.8 2.2 2.5 0.9 1.6 0.9 3.8 0 2.2-0.9 3.8-0.8 1.7-2.2 2.6-1.4 0.9-3.1 0.9-1.5 0-2.6-0.6-1.2-0.6-1.8-1.6v8.7h-4.3v-20.8h4.3zm6.2 5q0-1.6-0.9-2.5-0.9-1-2.2-1-1.3 0-2.2 1-0.9 0.9-0.9 2.5 0 1.7 0.9 2.6 0.9 0.9 2.2 0.9 1.2 0 2.2-0.9 0.9-1 0.9-2.6z"/><path fill-rule="evenodd" d="m85.6 102.6q0-2.2 0.8-3.8 0.8-1.7 2.2-2.5 1.5-0.9 3.2-0.9 1.5 0 2.6 0.6 1.1 0.6 1.8 1.6v-2h4.3v14.1h-4.3v-2q-0.7 1-1.8 1.6-1.1 0.6-2.6 0.6-1.7 0-3.2-0.9-1.4-0.9-2.2-2.6-0.8-1.6-0.8-3.8zm10.6 0q0-1.6-1-2.5-0.8-1-2.1-1-1.3 0-2.2 1-0.9 0.9-0.9 2.5 0 1.6 0.9 2.6 0.9 0.9 2.2 0.9 1.3 0 2.1-0.9 1-1 1-2.6z"/><path  d="m107.9 97.9q0.8-1.1 1.9-1.8 1.2-0.7 2.6-0.7v4.6h-1.2q-1.6 0-2.5 0.7-0.8 0.7-0.8 2.4v6.6h-4.3v-14.1h4.3z"/><path fill-rule="evenodd" d="m113.6 102.6q0-2.2 0.8-3.8 0.8-1.7 2.2-2.5 1.5-0.9 3.2-0.9 1.5 0 2.6 0.6 1.1 0.6 1.7 1.6v-2h4.4v14.1h-4.4v-2q-0.6 1-1.7 1.6-1.1 0.6-2.6 0.6-1.7 0-3.2-0.9-1.4-0.9-2.2-2.6-0.8-1.6-0.8-3.8zm10.5 0q0-1.6-0.9-2.5-0.9-1-2.1-1-1.3 0-2.2 1-0.9 0.9-0.9 2.5 0 1.6 0.9 2.6 0.9 0.9 2.2 0.9 1.2 0 2.1-0.9 0.9-1 0.9-2.6z"/><g clip-path="url(#cp1)"><path class="a" d="m58.5 36.3q0-0.1-0.1-0.2c-0.8-1.1-2.3-1.7-3.6-1.5-1.5 0.1-2.6 0.9-3.2 1.3 0 0-3.6 2.5-9.5 5-1 0.4-1.2 0.3-1.2 0.2q-0.1-0.1 0-0.2c0.7-2.5 1.5-5 2-7.6q0.8-4.3 1-8.7c0.1-1.4 0.1-3-0.7-4.2-1.2-2-4.3-2.3-5.9-0.7-1.1 1-1.4 2.5-1.7 3.9q-0.6 2.7-1.1 5.4-0.3 1.3-0.5 2.7c-0.1 1.2-0.2 2-0.5 2.1-0.1 0-0.3 0-0.6-0.6q-0.5-0.9-1.1-1.7-0.9-1.7-2-3.2-2.1-3.1-4.7-5.9c-1-1.1-2.1-2.2-3.5-2.7-1.1-0.4-2.5-0.3-3.4 0.4-1.1 0.7-2 1.4-1.9 2.8 0.1 0.9 0.5 1.8 0.9 2.6q1.2 2.2 2.5 4.2 0 0.1 1.7 2.5c0.8 1.2 1.5 2.1 1.3 2.2 0 0.1-0.1-0.1-0.5-0.3q-0.6-0.3-1.2-0.5-1.1-0.5-2.3-0.9-2.4-0.8-4.8-1.2-1.5-0.4-3-0.5c-1.2-0.2-2.5-0.3-3.6 0.1-1.3 0.6-2.3 1.8-2.5 3.2-0.2 1.3 0.4 2.8 1.5 3.6 0.9 0.7 2 1 3 1.3q5.4 1.5 10.6 3.7c-0.3-0.1-1.6 0.5-1.9 0.7q-1.1 0.3-2.1 0.8-2.1 0.8-4.1 1.8c-2.4 1.3-5.4 2.7-7.2 4.9-1.4 1.6-1.6 3.9-0.2 5.5 0.9 1.1 2.3 1.6 3.7 1.4 1.2-0.1 2.2-0.9 3.3-1.5q3.9-2.5 8.3-4.1c1-0.3 1.9-1.1 2.2-0.7 0.4 0.3-0.2 1.4-0.4 1.9-2.6 5.3-3 12.4-3 13-0.2 2-0.3 4.3 1 5.8 1.7 2 5.3 1.7 6.6-0.6 0.6-0.9 0.7-2 0.8-3.1 0.5-3.5 1-5.2 1-5.2 0.7-4.3 0.9-5 1.2-5.1 0.4 0 0.5 0.8 1.8 3 0.3 0.6 0.9 1.7 1.8 3.2q2 3 4.4 5.8c1.1 1.2 2.3 2.4 3.9 2.7 2.3 0.4 4.7-1.8 4.5-4.1 0-1-0.3-1.6-1-2.8-1.3-2.4-5-7.3-5.2-7.9q0 0 0 0c0.1-0.2 2.8 1 6 2 0.6 0.2 3.1 0.8 6.3 1.3 1.2 0.2 2.5 0.3 3.6-0.1 2.3-0.8 3.2-4.1 1.7-6-0.8-0.9-1.8-1.5-3.4-2-6.9-2.3-10.3-2.6-10.4-3.4 0-0.7 1.9-0.9 6.4-3 0.2-0.1 2.9-1.5 6.3-3.7 1.3-0.9 2.7-1.9 3.3-3.5 0.4-1.2 0.2-2.6-0.6-3.6z"/></g><g clip-path="url(#cp2)"><path fill-rule="evenodd" class="a" d="m22.6 74c-1.3 0-2.5-0.5-3.3-1.4-1.4-1.6-1.4-3.9-1.1-6q0-0.1 0-0.2c0.4-5.1 1.5-9.7 3-13l0.1-0.1c0.5-1 0.5-1.3 0.4-1.4-0.1 0-0.6 0.2-0.9 0.3-0.3 0.2-0.6 0.4-1 0.5-2.9 1.1-5.6 2.4-8.2 4.1l-0.3 0.1c-1 0.6-2 1.3-3.2 1.4-1.4 0.2-3-0.4-4-1.5-1.4-1.7-1.3-4.1 0.2-5.9 1.8-2.1 4.6-3.6 7.1-4.8l0.3-0.2q2-1 4.1-1.9c0.7-0.3 1.4-0.5 2.1-0.8 0 0 0.2-0.1 0.4-0.1q0.3-0.2 0.6-0.3c-3.1-1.3-6.4-2.4-9.7-3.3-1-0.3-2.2-0.6-3.1-1.3-1.2-1-1.8-2.5-1.6-4 0.2-1.5 1.3-2.8 2.7-3.4 1.2-0.4 2.5-0.3 3.7-0.2q1.5 0.2 3 0.5 2.6 0.5 4.9 1.3 1.2 0.4 2.3 0.9 0.5 0.1 0.9 0.3c-0.3-0.4-0.6-0.9-0.9-1.3q-0.9-1.3-1.3-1.9c-0.3-0.4-0.4-0.5-0.4-0.5q-1.3-2.1-2.5-4.3c-0.4-0.9-0.8-1.7-0.9-2.7-0.1-1.6 0.9-2.3 2-3.1 1-0.7 2.4-0.9 3.7-0.4 1.5 0.5 2.7 1.7 3.6 2.8 1.7 1.9 3.3 3.9 4.7 5.9q1 1.5 2.1 3.2 0.4 0.6 0.7 1.2 0.2 0.3 0.3 0.5 0.2 0.4 0.3 0.4c0.1-0.2 0.2-0.8 0.3-1.4v-0.3c0.1-1.2 0.3-2 0.4-2.8q0.5-2.6 1.1-5.4c0.3-1.5 0.7-3 1.8-4.1 0.8-0.8 2.1-1.2 3.4-1 1.3 0.1 2.4 0.8 3 1.8 0.9 1.4 0.9 3 0.8 4.5-0.1 2.9-0.5 5.8-1.1 8.7-0.4 2.1-1 4.3-1.6 6.4q-0.2 0.5-0.3 1.1c0.1 0 0.3-0.1 0.7-0.3 5.9-2.4 9.5-4.9 9.5-5 0.7-0.5 1.8-1.2 3.3-1.3 1.5-0.2 3 0.4 3.9 1.6h0.1q0 0.1 0 0.1 0 0 0.1 0.1c0.8 1.1 1 2.7 0.5 4-0.6 1.6-2.1 2.7-3.4 3.6-3.3 2.2-6.1 3.6-6.4 3.7-1.9 0.9-3.3 1.5-4.3 1.9-0.9 0.3-1.7 0.6-1.8 0.8 0.1 0.3 1.7 0.7 3.3 1.1 1.6 0.4 3.9 1 6.9 2 1.8 0.6 2.7 1.2 3.5 2.2 0.8 0.9 1 2.3 0.6 3.6-0.3 1.4-1.3 2.4-2.4 2.9-1.3 0.4-2.6 0.2-3.8 0.1-3.3-0.6-5.8-1.2-6.4-1.4-1.4-0.4-2.7-0.9-3.7-1.3-0.6-0.2-1.2-0.4-1.5-0.6 0.3 0.7 1.1 1.7 1.8 2.7 1.1 1.6 2.4 3.4 3.1 4.7 0.7 1.2 0.9 1.9 1 2.8 0.1 1.3-0.4 2.5-1.4 3.4-1 0.9-2.3 1.3-3.5 1.1-1.7-0.3-2.9-1.5-4.1-2.8-1.6-1.8-3.1-3.8-4.4-5.9-0.9-1.4-1.6-2.6-1.9-3.2q-0.6-1.1-0.9-1.8c-0.2-0.4-0.4-0.7-0.5-0.9-0.2 0.5-0.5 2.3-0.9 4.8 0 0-0.5 1.8-1 5.1v0.1c-0.1 1.1-0.3 2.2-0.9 3.2-0.6 1.1-1.9 1.9-3.3 2q-0.2 0-0.4 0zm-0.9-22.7q0.3 0 0.5 0.1c0.4 0.5 0.1 1.4-0.4 2.2v0.1c-1.5 3.2-2.6 7.8-3 12.8q0 0.1 0 0.2c-0.2 1.9-0.2 4.1 1 5.5 0.7 0.8 1.9 1.3 3.1 1.2 1.3-0.2 2.4-0.8 2.9-1.7 0.5-0.9 0.7-1.9 0.8-3v-0.1c0.5-3.3 0.9-5 1-5.1 0.3-2.1 0.5-3.4 0.7-4.2 0.2-0.6 0.3-1.1 0.8-1.2 0.4 0 0.6 0.4 1.1 1.3q0.3 0.7 0.9 1.8c0.3 0.6 1 1.8 1.9 3.2 1.3 2 2.8 3.9 4.3 5.7 1.1 1.2 2.3 2.4 3.7 2.6 1 0.2 2.1-0.1 3-0.9 0.8-0.8 1.3-1.8 1.2-2.8-0.1-0.9-0.3-1.5-0.9-2.6-0.7-1.2-2-3-3.1-4.6-1.5-2.2-2.1-3.1-2.2-3.4v-0.2c0.2-0.4 0.6-0.2 1.1-0.1q0.6 0.2 1.5 0.6c1.1 0.3 2.4 0.8 3.8 1.2 0.7 0.3 3.2 0.9 6.2 1.4 1.1 0.2 2.4 0.3 3.5-0.1 1-0.3 1.7-1.3 2-2.4 0.4-1.1 0.2-2.3-0.5-3.1-0.7-0.9-1.5-1.4-3.2-1.9-2.9-1-5.2-1.6-6.9-2-2.6-0.7-3.7-1-3.7-1.7-0.1-0.6 0.6-0.9 2.2-1.5 1-0.4 2.4-0.9 4.3-1.8 0.3-0.1 3-1.5 6.3-3.7 1.2-0.8 2.6-1.8 3.2-3.3 0.3-1.1 0.1-2.4-0.5-3.4q-0.1 0-0.1 0 0-0.1-0.1-0.2c-0.7-0.9-2-1.5-3.3-1.3-1.3 0.1-2.3 0.8-3 1.2 0 0-3.7 2.6-9.6 5.1-0.9 0.4-1.4 0.4-1.6 0.1q-0.1-0.2-0.1-0.5 0.2-0.6 0.4-1.2c0.6-2.1 1.2-4.2 1.6-6.4q0.9-4.3 1.1-8.6c0.1-1.4 0.1-2.9-0.7-4.1-0.5-0.8-1.4-1.4-2.5-1.5-1.1-0.1-2.2 0.2-2.9 0.9-1 0.9-1.3 2.3-1.6 3.7-0.5 1.9-0.8 3.7-1.2 5.4-0.1 0.8-0.2 1.6-0.4 2.7v0.4c-0.1 1.2-0.2 1.9-0.7 2-0.5 0.1-0.8-0.4-1-0.7q-0.2-0.3-0.3-0.5-0.4-0.7-0.7-1.3c-0.7-1.1-1.4-2.1-2.1-3.1-1.4-2.1-2.9-4-4.6-5.9-0.9-1-2-2.1-3.4-2.6-1.1-0.4-2.3-0.3-3.1 0.3-1 0.8-1.8 1.3-1.7 2.6 0 0.8 0.4 1.6 0.8 2.4q1.1 2.2 2.5 4.2c0 0.1 0.2 0.3 0.4 0.6q0.4 0.6 1.3 1.9c0.4 0.6 0.7 1.1 1 1.5 0.3 0.5 0.6 0.9 0.2 1.2-0.2 0.1-0.4 0-0.5-0.1-0.1-0.1-0.2-0.2-0.4-0.2l-0.1-0.1q-0.5-0.3-1-0.5-1.1-0.4-2.3-0.8c-1.5-0.5-3.1-0.9-4.8-1.3q-1.4-0.3-2.9-0.5c-1.1-0.1-2.4-0.2-3.5 0.2-1.1 0.5-2 1.6-2.2 2.9-0.2 1.2 0.3 2.6 1.3 3.3 0.8 0.7 1.9 1 2.9 1.2 3.7 1 7.2 2.3 10.7 3.8 0.1 0.1 0.1 0.2 0.1 0.3-0.1 0.2-0.2 0.3-0.4 0.3-0.2-0.1-1 0.3-1.3 0.4q-0.3 0.2-0.4 0.2-1 0.4-2.1 0.8-2 0.9-4 1.9l-0.3 0.1c-2.5 1.3-5.2 2.7-6.9 4.7-1.3 1.5-1.4 3.6-0.2 5.1 0.8 1 2.2 1.5 3.4 1.3 1.1-0.2 2-0.8 3-1.4l0.2-0.1c2.6-1.6 5.5-3 8.4-4.1 0.3-0.1 0.6-0.3 0.9-0.4 0.5-0.2 0.9-0.4 1.2-0.4z"/></g><g clip-path="url(#cp3)"><g clip-path="url(#cp4)"><g clip-path="url(#cp5)"><g clip-path="url(#cp6)"><g clip-path="url(#cp7)"><path fill-rule="evenodd" d="m62 10l17.7 24.5-4.3-1.2-4.7 6.7 0.1 0.1c0.4 0.6 0.4 1.3-0.1 1.9-0.2 0.4-0.6 0.7-1.1 0.8l-2.5 5.3-3.6-2.5 4.1-4.2v-0.1c-0.1-0.4 0-0.9 0.2-1.3 0.5-0.6 1.2-0.8 1.9-0.7h0.1l4.4-6.4-23.6-6.5-17.7-24.5zm-21.9 4.7l9.5 13.1 15.6 4.3-5.3 7.6c-1.6 2.4-8.5 0.4-15.5-4.4-6.9-4.8-11.2-10.7-9.5-13z"/></g></g></g></g></g><path  d="m114.5 121.1v22.6h-5.2v-22.6z"/><path fill-rule="evenodd" d="m117.3 135.2q0-2.7 1-4.6 1-2 2.7-3.1 1.7-1.1 3.8-1.1 1.8 0 3.2 0.8 1.3 0.7 2.1 1.9v-2.4h5.2v17h-5.2v-2.4q-0.8 1.2-2.2 2-1.3 0.7-3.1 0.7-2.1 0-3.8-1.1-1.7-1.1-2.7-3.1-1-2-1-4.6zm12.8 0q0-1.9-1.1-3.1-1.1-1.1-2.7-1.1-1.5 0-2.6 1.1-1.1 1.1-1.1 3.1 0 1.9 1.1 3.1 1.1 1.1 2.6 1.1 1.6 0 2.7-1.1 1.1-1.1 1.1-3.1z"/></svg>